<svg xmlns="http://www.w3.org/2000/svg" width="1920.315" height="809.158" viewBox="0 0 1920.315 809.158">
  <g id="Group_5525" data-name="Group 5525" transform="translate(0 -419.842)" opacity="0.05">
    <g id="Group_5526" data-name="Group 5526" transform="translate(0 419.842)">
      <g id="Group_5510" data-name="Group 5510" transform="translate(0 120.99)" opacity="0.86">
        <path id="Path_21696" data-name="Path 21696" d="M-14.345,1419.039l-1.371,1.437-.006.008H-9.76a2.661,2.661,0,0,0-.79-1.535A2.684,2.684,0,0,0-14.345,1419.039Z" transform="translate(576.863 -732.316)" fill="#fff"/>
        <path id="Path_21697" data-name="Path 21697" d="M10.754,1392.245l-1.371,1.438a3.246,3.246,0,0,0,4.59,4.59l1.437-1.371c.034-.033.076-.075.11-.11a3.293,3.293,0,0,0-4.766-4.546Z" transform="translate(569.587 -724.207)" fill="#fff"/>
        <path id="Path_21698" data-name="Path 21698" d="M36.312,1365.625l-1.38,1.428a3.724,3.724,0,0,0,5.265,5.266l1.428-1.381c.027-.026.064-.063.09-.09a3.758,3.758,0,0,0-5.4-5.223Z" transform="translate(561.953 -716.167)" fill="#fff"/>
        <path id="Path_21699" data-name="Path 21699" d="M61.912,1339.039l-1.385,1.423a4.163,4.163,0,0,0,5.886,5.886l1.423-1.385c.022-.021.059-.057.08-.08a4.19,4.19,0,0,0-6.005-5.844Z" transform="translate(554.3 -708.14)" fill="#fff"/>
        <path id="Path_21700" data-name="Path 21700" d="M87.7,1312.645l-1.389,1.418a4.434,4.434,0,0,0,6.27,6.271l1.418-1.39.065-.064a4.455,4.455,0,0,0-6.365-6.236Z" transform="translate(546.576 -700.186)" fill="#fff"/>
        <path id="Path_21701" data-name="Path 21701" d="M113.5,1286.247l-1.39,1.419a4.7,4.7,0,0,0,6.646,6.646l1.418-1.39.069-.069a4.72,4.72,0,0,0-6.743-6.606Z" transform="translate(538.846 -692.228)" fill="#fff"/>
        <path id="Path_21702" data-name="Path 21702" d="M139.461,1260.045l-1.4,1.409a4.815,4.815,0,0,0,6.809,6.809l1.409-1.4.023-.023a4.821,4.821,0,0,0-6.841-6.795Z" transform="translate(531.062 -684.351)" fill="#fff"/>
        <path id="Path_21703" data-name="Path 21703" d="M165.457,1233.849l-1.4,1.409a4.9,4.9,0,0,0,6.934,6.933l1.409-1.4.024-.024a4.909,4.909,0,1,0-6.966-6.919Z" transform="translate(523.256 -676.469)" fill="#fff"/>
        <path id="Path_21704" data-name="Path 21704" d="M191.538,1207.765l-1.409,1.4-.024.024a4.915,4.915,0,0,0,6.975,6.927l1.4-1.409a4.908,4.908,0,0,0-6.941-6.941Z" transform="translate(515.428 -668.637)" fill="#fff"/>
        <path id="Path_21705" data-name="Path 21705" d="M217.735,1181.769l-1.409,1.4-.024.023a4.827,4.827,0,0,0,6.85,6.8l1.4-1.409a4.82,4.82,0,0,0-6.816-6.816Z" transform="translate(507.547 -632.073)" fill="#fff"/>
        <path id="Path_21706" data-name="Path 21706" d="M243.937,1155.8l-1.418,1.39c-.017.017-.052.051-.069.069a4.733,4.733,0,0,0,6.763,6.625l1.39-1.419a4.713,4.713,0,0,0-6.665-6.665Z" transform="translate(499.673 -620.949)" fill="#fff"/>
        <path id="Path_21707" data-name="Path 21707" d="M275.235,1137.716l1.389-1.418a4.446,4.446,0,0,0-6.287-6.287l-1.419,1.389c-.017.016-.049.049-.065.066a4.467,4.467,0,1,0,6.382,6.251Z" transform="translate(491.714 -609.863)" fill="#fff"/>
        <path id="Path_21708" data-name="Path 21708" d="M301.258,1111.545l1.39-1.418a4.179,4.179,0,0,0-5.91-5.91l-1.418,1.39-.062.061a4.2,4.2,0,1,0,6,5.878Z" transform="translate(483.755 -598.781)" fill="#fff"/>
        <path id="Path_21709" data-name="Path 21709" d="M321.8,1080.1a3.772,3.772,0,1,0,5.425,5.242l1.38-1.428a3.738,3.738,0,0,0-5.286-5.286l-1.428,1.38C321.869,1080.035,321.83,1080.072,321.8,1080.1Z" transform="translate(475.734 -587.776)" fill="#fff"/>
        <path id="Path_21710" data-name="Path 21710" d="M353.193,1059.127l1.37-1.438a3.262,3.262,0,0,0-4.611-4.611l-1.437,1.371c-.035.034-.078.076-.111.111a3.309,3.309,0,0,0,4.79,4.567Z" transform="translate(467.696 -576.788)" fill="#fff"/>
        <path id="Path_21711" data-name="Path 21711" d="M376.749,1027.677l-1.438,1.37c-.028.027-.063.063-.09.091a2.7,2.7,0,0,0,3.9,3.721l.617-.647v-4.988A2.641,2.641,0,0,0,376.749,1027.677Z" transform="translate(459.584 -565.847)" fill="#fff"/>
        <path id="Path_21712" data-name="Path 21712" d="M106.457,1337.718,297.41,1144.83v-1.993l-196.854,194.88Z" transform="translate(541.915 -649.55)" fill="#fff"/>
        <path id="Path_21713" data-name="Path 21713" d="M241.056,1359.918l96.478-96.478v-14.009L234.051,1352.913Z" transform="translate(501.791 -681.588)" fill="#fff"/>
        <path id="Path_21714" data-name="Path 21714" d="M325.627,1404.392h13.417l26.014-25.784v-13.939l-3.425,3.4Z" transform="translate(474.266 -716.225)" fill="#fff"/>
        <path id="Path_21715" data-name="Path 21715" d="M-817.245,1027.883a2.625,2.625,0,0,0-.753-.542v4.988l.753-.79A2.654,2.654,0,0,0-817.245,1027.883Z" transform="translate(817.998 -565.798)" fill="#fff"/>
        <path id="Path_21716" data-name="Path 21716" d="M-796.325,1002.411l-1.447,1.362c-.027.026-.059.057-.085.085a1.974,1.974,0,0,0,.085,2.791,1.974,1.974,0,0,0,2.792-.085l1.361-1.446a1.92,1.92,0,0,0,0-2.624A1.914,1.914,0,0,0-796.325,1002.411Z" transform="translate(812.105 -554.96)" fill="#fff"/>
        <path id="Path_21717" data-name="Path 21717" d="M-769.236,977.3l-1.456,1.353c-.019.018-.04.038-.057.057a1.116,1.116,0,0,0,.057,1.576,1.115,1.115,0,0,0,1.575-.058l1.353-1.455a1.045,1.045,0,0,0,0-1.419A1.042,1.042,0,0,0-769.236,977.3Z" transform="translate(803.886 -544.135)" fill="#fff"/>
        <path id="Path_21718" data-name="Path 21718" d="M-743.369,954.055a.044.044,0,0,0,0,.062.045.045,0,0,0,.062,0l.669-.732-.732.669Z" transform="translate(795.571 -533.728)" fill="#fff"/>
        <path id="Path_21719" data-name="Path 21719" d="M-818,1100.8v1.992l98.823-99.824Z" transform="translate(817.998 -568.083)" fill="#fff"/>
        <path id="Path_21720" data-name="Path 21720" d="M-640.367,995.468-818,1173.1v14.009l184.636-184.636Z" transform="translate(817.998 -605.256)" fill="#fff"/>
        <path id="Path_21721" data-name="Path 21721" d="M-771.179,1259.767c14.281-14.671,28.694-29.209,42.845-44.011,28.439-29.465,56.629-59.179,84.123-89.59-30.409,27.494-60.124,55.684-89.589,84.123-14.8,14.151-29.34,28.564-44.011,42.844L-818,1292.983v13.939l3.576-3.543Z" transform="translate(817.998 -644.54)" fill="#fff"/>
        <path id="Path_21722" data-name="Path 21722" d="M-610.238,1209.466l-145.637,148.277h8.807l143.834-141.273Z" transform="translate(799.326 -669.577)" fill="#fff"/>
        <path id="Path_21723" data-name="Path 21723" d="M-512.381,1238.351l-128.074,128.074h8.406l123.872-123.872Z" transform="translate(764.635 -678.258)" fill="#fff"/>
        <path id="Path_21724" data-name="Path 21724" d="M-509.863,1400.315l-1.364,1.365a4.844,4.844,0,0,0,.157,6.846,4.844,4.844,0,0,0,6.847.157l1.365-1.364a4.845,4.845,0,0,0-.157-6.847A4.846,4.846,0,0,0-509.863,1400.315Z" transform="translate(726.197 -726.536)" fill="#fff"/>
        <path id="Path_21725" data-name="Path 21725" d="M-401.459,1305.921a4.845,4.845,0,0,0-.157-6.848,4.846,4.846,0,0,0-6.847-.157l-1.364,1.364a4.847,4.847,0,0,0,.157,6.848,4.846,4.846,0,0,0,6.848.157Z" transform="translate(695.72 -696.059)" fill="#fff"/>
        <path id="Path_21726" data-name="Path 21726" d="M-484.514,1374.966l-1.364,1.364a4.846,4.846,0,0,0,.157,6.848,4.846,4.846,0,0,0,6.847.157l1.364-1.364a4.846,4.846,0,0,0-.157-6.847A4.846,4.846,0,0,0-484.514,1374.966Z" transform="translate(718.578 -718.917)" fill="#fff"/>
        <path id="Path_21727" data-name="Path 21727" d="M-433.815,1324.267l-1.362,1.363a4.845,4.845,0,0,0,.157,6.847,4.844,4.844,0,0,0,6.847.157l1.363-1.362a4.846,4.846,0,0,0-.157-6.847A4.846,4.846,0,0,0-433.815,1324.267Z" transform="translate(703.339 -703.678)" fill="#fff"/>
        <path id="Path_21728" data-name="Path 21728" d="M-459.164,1349.617l-1.364,1.364a4.844,4.844,0,0,0,.157,6.847,4.844,4.844,0,0,0,6.847.157l1.364-1.364a4.844,4.844,0,0,0-.157-6.847A4.844,4.844,0,0,0-459.164,1349.617Z" transform="translate(710.959 -711.298)" fill="#fff"/>
        <path id="Path_21729" data-name="Path 21729" d="M-383.114,1273.567l-1.364,1.364a4.844,4.844,0,0,0,.157,6.847,4.845,4.845,0,0,0,6.847.158l1.364-1.365a4.844,4.844,0,0,0-.157-6.847A4.844,4.844,0,0,0-383.114,1273.567Z" transform="translate(688.101 -688.44)" fill="#fff"/>
        <path id="Path_21730" data-name="Path 21730" d="M-358.461,1249.211l-.669.67a4.844,4.844,0,0,0,.157,6.846,4.844,4.844,0,0,0,6.847.157l.669-.669a4.845,4.845,0,0,0-.157-6.847A4.846,4.846,0,0,0-358.461,1249.211Z" transform="translate(680.482 -681.119)" fill="#fff"/>
        <path id="Path_21731" data-name="Path 21731" d="M-400.721,1416.634l-3.45,3.377h.145Z" transform="translate(693.617 -731.843)" fill="#fff"/>
        <path id="Path_21732" data-name="Path 21732" d="M-689.661,900.347l-.669.731.731-.669,0,0a.043.043,0,0,0,0-.062A.043.043,0,0,0-689.661,900.347Z" transform="translate(779.626 -511.095)" fill="#fff"/>
        <path id="Path_21733" data-name="Path 21733" d="M-664.941,875.948l1.455-1.353c.019-.017.039-.038.057-.057a1.108,1.108,0,0,0-.057-1.567,1.108,1.108,0,0,0-1.566.057l-1.353,1.455a1.039,1.039,0,0,0,0,1.411A1.036,1.036,0,0,0-664.941,875.948Z" transform="translate(772.518 -499.57)" fill="#fff"/>
        <path id="Path_21734" data-name="Path 21734" d="M-638.6,850.092l1.446-1.361c.027-.026.057-.057.083-.084a1.964,1.964,0,0,0-.083-2.777,1.965,1.965,0,0,0-2.777.083l-1.362,1.446a1.91,1.91,0,0,0,0,2.612A1.9,1.9,0,0,0-638.6,850.092Z" transform="translate(765.041 -488.058)" fill="#fff"/>
        <path id="Path_21735" data-name="Path 21735" d="M-612.3,824.2l1.437-1.372c.028-.026.063-.061.089-.089a2.684,2.684,0,0,0-.089-3.8,2.684,2.684,0,0,0-3.794.09l-1.371,1.437a2.643,2.643,0,0,0,0,3.64A2.636,2.636,0,0,0-612.3,824.2Z" transform="translate(757.511 -476.597)" fill="#fff"/>
        <path id="Path_21736" data-name="Path 21736" d="M-586.027,798.272l1.437-1.371c.034-.033.076-.075.11-.11a3.293,3.293,0,0,0-.11-4.655,3.294,3.294,0,0,0-4.656.109l-1.371,1.437a3.254,3.254,0,0,0,0,4.482A3.246,3.246,0,0,0-586.027,798.272Z" transform="translate(749.924 -465.167)" fill="#fff"/>
        <path id="Path_21737" data-name="Path 21737" d="M-559.8,772.319l1.428-1.381c.027-.026.064-.063.09-.09a3.758,3.758,0,0,0-.09-5.314,3.758,3.758,0,0,0-5.313.09l-1.38,1.428a3.73,3.73,0,0,0,0,5.176A3.724,3.724,0,0,0-559.8,772.319Z" transform="translate(742.29 -453.805)" fill="#fff"/>
        <path id="Path_21738" data-name="Path 21738" d="M-533.587,746.349l1.423-1.385c.022-.022.059-.057.08-.08a4.19,4.19,0,0,0-.08-5.924,4.19,4.19,0,0,0-5.925.08l-1.385,1.423a4.168,4.168,0,0,0,0,5.807A4.163,4.163,0,0,0-533.587,746.349Z" transform="translate(734.638 -442.447)" fill="#fff"/>
        <path id="Path_21739" data-name="Path 21739" d="M-507.418,720.335l1.418-1.39.065-.064a4.455,4.455,0,0,0-.065-6.3,4.455,4.455,0,0,0-6.3.064l-1.389,1.419a4.438,4.438,0,0,0,0,6.207A4.434,4.434,0,0,0-507.418,720.335Z" transform="translate(726.914 -431.161)" fill="#fff"/>
        <path id="Path_21740" data-name="Path 21740" d="M-481.248,694.312l1.418-1.39.069-.069a4.719,4.719,0,0,0-.069-6.675,4.721,4.721,0,0,0-6.675.069l-1.39,1.418a4.7,4.7,0,0,0,0,6.578A4.7,4.7,0,0,0-481.248,694.312Z" transform="translate(719.184 -419.864)" fill="#fff"/>
        <path id="Path_21741" data-name="Path 21741" d="M-455.13,668.263l1.409-1.4.023-.023a4.821,4.821,0,0,0-.023-6.818,4.821,4.821,0,0,0-6.818.023l-1.4,1.409a4.817,4.817,0,0,0,0,6.786A4.815,4.815,0,0,0-455.13,668.263Z" transform="translate(711.4 -408.656)" fill="#fff"/>
        <path id="Path_21742" data-name="Path 21742" d="M-429.009,642.191l1.409-1.4.024-.024a4.909,4.909,0,0,0-.023-6.943,4.909,4.909,0,0,0-6.943.024l-1.4,1.409a4.9,4.9,0,0,0,0,6.91A4.9,4.9,0,0,0-429.009,642.191Z" transform="translate(703.594 -397.439)" fill="#fff"/>
        <path id="Path_21743" data-name="Path 21743" d="M-402.92,616.114l1.4-1.409a4.909,4.909,0,0,0,0-6.917,4.908,4.908,0,0,0-6.941-.024l-1.409,1.4-.024.024a4.914,4.914,0,0,0,.024,6.95A4.915,4.915,0,0,0-402.92,616.114Z" transform="translate(695.766 -386.279)" fill="#fff"/>
        <path id="Path_21744" data-name="Path 21744" d="M-376.848,589.994l1.4-1.409a4.821,4.821,0,0,0,0-6.793,4.82,4.82,0,0,0-6.816-.023l-1.409,1.4-.024.023a4.827,4.827,0,0,0,.023,6.826A4.828,4.828,0,0,0-376.848,589.994Z" transform="translate(687.885 -375.148)" fill="#fff"/>
        <path id="Path_21745" data-name="Path 21745" d="M-350.788,563.887l1.39-1.418a4.718,4.718,0,0,0,0-6.6,4.714,4.714,0,0,0-6.665-.068l-1.418,1.39c-.018.017-.052.051-.069.069a4.733,4.733,0,0,0,.069,6.694A4.733,4.733,0,0,0-350.788,563.887Z" transform="translate(680.011 -364.043)" fill="#fff"/>
        <path id="Path_21746" data-name="Path 21746" d="M-324.765,537.716l1.389-1.418a4.45,4.45,0,0,0,0-6.223,4.446,4.446,0,0,0-6.287-.064l-1.419,1.389-.065.066a4.466,4.466,0,0,0,.065,6.317A4.467,4.467,0,0,0-324.765,537.716Z" transform="translate(672.052 -353.006)" fill="#fff"/>
        <path id="Path_21747" data-name="Path 21747" d="M-298.742,511.545l1.39-1.418a4.183,4.183,0,0,0,0-5.849,4.179,4.179,0,0,0-5.91-.062l-1.418,1.39-.062.061a4.2,4.2,0,0,0,.062,5.94A4.2,4.2,0,0,0-298.742,511.545Z" transform="translate(664.093 -341.973)" fill="#fff"/>
        <path id="Path_21748" data-name="Path 21748" d="M-272.771,485.342l1.38-1.428a3.744,3.744,0,0,0,0-5.195,3.738,3.738,0,0,0-5.286-.091l-1.428,1.381c-.027.026-.065.064-.091.091a3.771,3.771,0,0,0,.091,5.334A3.772,3.772,0,0,0-272.771,485.342Z" transform="translate(656.072 -331.049)" fill="#fff"/>
        <path id="Path_21749" data-name="Path 21749" d="M-246.807,459.127l1.37-1.438a3.268,3.268,0,0,0,0-4.5,3.262,3.262,0,0,0-4.611-.11l-1.437,1.371c-.035.034-.078.075-.111.111a3.309,3.309,0,0,0,.111,4.679A3.309,3.309,0,0,0-246.807,459.127Z" transform="translate(648.034 -320.147)" fill="#fff"/>
        <path id="Path_21750" data-name="Path 21750" d="M-220.877,432.857l1.37-1.438a2.654,2.654,0,0,0,0-3.655,2.648,2.648,0,0,0-3.744-.089l-1.438,1.37c-.028.027-.063.062-.09.091a2.7,2.7,0,0,0,.091,3.811A2.7,2.7,0,0,0-220.877,432.857Z" transform="translate(639.922 -283.222)" fill="#fff"/>
        <path id="Path_21751" data-name="Path 21751" d="M-194.98,406.564l1.361-1.446a1.919,1.919,0,0,0,0-2.624,1.914,1.914,0,0,0-2.706-.082l-1.446,1.362c-.027.026-.059.057-.085.085a1.974,1.974,0,0,0,.085,2.791A1.974,1.974,0,0,0-194.98,406.564Z" transform="translate(631.767 -275.692)" fill="#fff"/>
        <path id="Path_21752" data-name="Path 21752" d="M-169.117,380.229l1.353-1.456a1.045,1.045,0,0,0,0-1.418,1.041,1.041,0,0,0-1.472-.054l-1.456,1.353c-.019.017-.039.038-.057.057a1.116,1.116,0,0,0,.057,1.576A1.115,1.115,0,0,0-169.117,380.229Z" transform="translate(623.549 -268.217)" fill="#fff"/>
        <path id="Path_21753" data-name="Path 21753" d="M-143.3,354.115l.669-.732-.732.67,0,0a.044.044,0,0,0,0,.062A.045.045,0,0,0-143.3,354.115Z" transform="translate(615.233 -261.112)" fill="#fff"/>
        <path id="Path_21754" data-name="Path 21754" d="M-675.8,817.789l4.2,4.2,414.822-419.025Z" transform="translate(775.258 -321.672)" fill="#fff"/>
        <rect id="Rectangle_3618" data-name="Rectangle 3618" width="397.555" height="9.906" transform="translate(316.18 402.82) rotate(-45)" fill="#fff"/>
        <rect id="Rectangle_3619" data-name="Rectangle 3619" width="43.036" height="9.906" transform="translate(248.469 387.571) rotate(-45)" fill="#fff"/>
        <rect id="Rectangle_3620" data-name="Rectangle 3620" width="14.21" height="9.906" transform="translate(223.762 406.046) rotate(-45)" fill="#fff"/>
        <path id="Path_21755" data-name="Path 21755" d="M-376.671,789.458c14.8-14.154,29.346-28.558,44.012-42.844l43.621-43.235,43.244-43.612c14.281-14.671,28.694-29.209,42.845-44.011,28.439-29.465,56.629-59.179,84.123-89.589-30.409,27.494-60.124,55.684-89.589,84.123-14.8,14.15-29.34,28.564-44.011,42.844l-43.611,43.245L-339.273,740c-14.286,14.667-28.69,29.214-42.844,44.012-28.437,29.467-56.631,59.178-84.134,89.579C-435.849,846.089-406.139,817.9-376.671,789.458Z" transform="translate(712.276 -378.536)" fill="#fff"/>
        <path id="Path_21756" data-name="Path 21756" d="M-113.672,609.466l-386.337,393.342,393.342-386.337Z" transform="translate(722.422 -430.062)" fill="#fff"/>
        <rect id="Rectangle_3621" data-name="Rectangle 3621" width="462.825" height="5.944" transform="translate(344.649 532.067) rotate(-45)" fill="#fff"/>
        <path id="Path_21757" data-name="Path 21757" d="M-289.815,1180.565l-.669.669a4.844,4.844,0,0,0,.157,6.847,4.844,4.844,0,0,0,6.847.157l.669-.669a4.846,4.846,0,0,0-.157-6.847A4.846,4.846,0,0,0-289.815,1180.565Z" transform="translate(659.85 -631.481)" fill="#fff"/>
        <path id="Path_21758" data-name="Path 21758" d="M121.127,783.335l1.364-1.364a4.958,4.958,0,0,0-7-7l-1.364,1.364a4.958,4.958,0,0,0,7,7Z" transform="translate(538.24 -457.902)" fill="#fff"/>
        <path id="Path_21759" data-name="Path 21759" d="M95.777,808.684l1.365-1.364a4.958,4.958,0,0,0-7-7.005l-1.364,1.365a4.958,4.958,0,0,0,7,7Z" transform="translate(545.859 -468.757)" fill="#fff"/>
        <path id="Path_21760" data-name="Path 21760" d="M70.426,834.035l1.364-1.364a4.958,4.958,0,0,0-7-7l-1.364,1.364a4.958,4.958,0,0,0,7,7Z" transform="translate(553.479 -479.613)" fill="#fff"/>
        <path id="Path_21761" data-name="Path 21761" d="M140.836,749.617l-1.364,1.364a4.958,4.958,0,0,0,7,7l1.364-1.364a4.958,4.958,0,0,0-7-7Z" transform="translate(530.621 -447.048)" fill="#fff"/>
        <path id="Path_21762" data-name="Path 21762" d="M197.177,707.285l1.364-1.364a4.958,4.958,0,0,0-7-7l-1.364,1.364a4.958,4.958,0,0,0,7,7Z" transform="translate(515.382 -425.337)" fill="#fff"/>
        <path id="Path_21763" data-name="Path 21763" d="M222.526,681.936l1.364-1.365a4.958,4.958,0,0,0-7-7l-1.364,1.364a4.958,4.958,0,0,0,7,7Z" transform="translate(507.763 -414.482)" fill="#fff"/>
        <path id="Path_21764" data-name="Path 21764" d="M171.827,732.634l1.363-1.363a4.958,4.958,0,0,0-7-7l-1.362,1.363a4.958,4.958,0,0,0,7,7Z" transform="translate(523.001 -436.193)" fill="#fff"/>
        <path id="Path_21765" data-name="Path 21765" d="M-81.672,986.133l1.364-1.365a4.844,4.844,0,0,0-.157-6.847,4.844,4.844,0,0,0-6.847-.157l-1.364,1.364a4.844,4.844,0,0,0,.157,6.847A4.845,4.845,0,0,0-81.672,986.133Z" transform="translate(599.194 -544.742)" fill="#fff"/>
        <path id="Path_21766" data-name="Path 21766" d="M-56.323,960.784l1.365-1.364a4.846,4.846,0,0,0-.157-6.847,4.846,4.846,0,0,0-6.847-.157l-1.364,1.365a4.845,4.845,0,0,0,.157,6.847A4.844,4.844,0,0,0-56.323,960.784Z" transform="translate(591.575 -533.888)" fill="#fff"/>
        <path id="Path_21767" data-name="Path 21767" d="M-30.973,935.435l1.364-1.364a4.845,4.845,0,0,0-.157-6.847,4.845,4.845,0,0,0-6.847-.157l-1.365,1.364a4.846,4.846,0,0,0,.157,6.848A4.846,4.846,0,0,0-30.973,935.435Z" transform="translate(583.956 -523.033)" fill="#fff"/>
        <path id="Path_21768" data-name="Path 21768" d="M-107.021,1011.483l1.363-1.363a4.845,4.845,0,0,0-.157-6.848,4.845,4.845,0,0,0-6.847-.157l-1.363,1.362a4.846,4.846,0,0,0,.157,6.848A4.846,4.846,0,0,0-107.021,1011.483Z" transform="translate(606.813 -555.598)" fill="#fff"/>
        <path id="Path_21769" data-name="Path 21769" d="M-233.772,1138.233l1.364-1.364a4.844,4.844,0,0,0-.157-6.847,4.844,4.844,0,0,0-6.847-.157l-1.364,1.364a4.844,4.844,0,0,0,.157,6.847A4.844,4.844,0,0,0-233.772,1138.233Z" transform="translate(644.91 -609.873)" fill="#fff"/>
        <path id="Path_21770" data-name="Path 21770" d="M-208.421,1112.882l1.363-1.363a4.846,4.846,0,0,0-.157-6.847,4.846,4.846,0,0,0-6.848-.157l-1.362,1.363a4.845,4.845,0,0,0,.157,6.847A4.844,4.844,0,0,0-208.421,1112.882Z" transform="translate(637.29 -599.018)" fill="#fff"/>
        <path id="Path_21771" data-name="Path 21771" d="M-132.372,1036.834l1.364-1.364a4.847,4.847,0,0,0-.157-6.848,4.846,4.846,0,0,0-6.847-.157l-1.364,1.365a4.845,4.845,0,0,0,.157,6.847A4.845,4.845,0,0,0-132.372,1036.834Z" transform="translate(614.433 -566.453)" fill="#fff"/>
        <path id="Path_21772" data-name="Path 21772" d="M-5.622,910.083l1.364-1.364a4.844,4.844,0,0,0-.157-6.847,4.844,4.844,0,0,0-6.847-.157l-1.364,1.364a4.844,4.844,0,0,0,.157,6.847A4.844,4.844,0,0,0-5.622,910.083Z" transform="translate(576.336 -512.177)" fill="#fff"/>
        <path id="Path_21773" data-name="Path 21773" d="M-183.071,1087.533l1.364-1.364a4.846,4.846,0,0,0-.157-6.847,4.846,4.846,0,0,0-6.847-.157l-1.364,1.364a4.846,4.846,0,0,0,.157,6.848A4.846,4.846,0,0,0-183.071,1087.533Z" transform="translate(629.671 -588.162)" fill="#fff"/>
        <path id="Path_21774" data-name="Path 21774" d="M45.077,859.385l1.364-1.364a4.958,4.958,0,0,0-7-7l-1.365,1.364a4.958,4.958,0,0,0,7,7Z" transform="translate(561.098 -490.468)" fill="#fff"/>
        <path id="Path_21775" data-name="Path 21775" d="M19.727,884.734l1.365-1.364a4.958,4.958,0,0,0-7-7l-1.364,1.365a4.958,4.958,0,0,0,7,7Z" transform="translate(568.717 -501.322)" fill="#fff"/>
        <path id="Path_21776" data-name="Path 21776" d="M-259.121,1163.583l1.364-1.364a4.846,4.846,0,0,0-.157-6.848,4.845,4.845,0,0,0-6.847-.157l-1.365,1.364a4.846,4.846,0,0,0,.157,6.848A4.846,4.846,0,0,0-259.121,1163.583Z" transform="translate(652.529 -620.728)" fill="#fff"/>
        <path id="Path_21777" data-name="Path 21777" d="M-157.722,1062.183l1.364-1.364a4.844,4.844,0,0,0-.157-6.847,4.844,4.844,0,0,0-6.847-.157l-1.364,1.364a4.844,4.844,0,0,0,.157,6.847A4.844,4.844,0,0,0-157.722,1062.183Z" transform="translate(622.052 -577.308)" fill="#fff"/>
        <path id="Path_21778" data-name="Path 21778" d="M247.875,656.884l.669-.669a4.958,4.958,0,0,0-7-7l-.669.669a4.958,4.958,0,0,0,7,7Z" transform="translate(500.144 -404.007)" fill="#fff"/>
        <path id="Path_21779" data-name="Path 21779" d="M-272.145,1140.4l7,7L58.624,816.634Z" transform="translate(653.935 -551.506)" fill="#fff"/>
        <path id="Path_21780" data-name="Path 21780" d="M-89.6,300.406a.043.043,0,0,0,0-.062.043.043,0,0,0-.062,0l-.669.731.731-.669Z" transform="translate(599.288 -245.167)" fill="#fff"/>
        <path id="Path_21781" data-name="Path 21781" d="M-64.941,275.948l1.455-1.353c.019-.018.039-.038.057-.057a1.108,1.108,0,0,0-.057-1.567,1.108,1.108,0,0,0-1.566.057l-1.353,1.455a1.039,1.039,0,0,0,0,1.411A1.036,1.036,0,0,0-64.941,275.948Z" transform="translate(592.18 -236.854)" fill="#fff"/>
        <path id="Path_21782" data-name="Path 21782" d="M-38.6,250.092l1.446-1.361c.027-.026.057-.057.083-.084a1.964,1.964,0,0,0-.083-2.777,1.964,1.964,0,0,0-2.777.083L-41.29,247.4a1.91,1.91,0,0,0,0,2.612A1.9,1.9,0,0,0-38.6,250.092Z" transform="translate(584.703 -228.637)" fill="#fff"/>
        <path id="Path_21783" data-name="Path 21783" d="M-16.024,225.094a2.637,2.637,0,0,0,3.728.088l1.437-1.372c.028-.027.063-.061.09-.09a2.667,2.667,0,0,0,.7-2.259h-5.961A2.641,2.641,0,0,0-16.024,225.094Z" transform="translate(577.173 -221.462)" fill="#fff"/>
        <path id="Path_21784" data-name="Path 21784" d="M-71.6,347.775,53.452,221.462h-5.9L-75.8,343.573Z" transform="translate(594.92 -221.462)" fill="#fff"/>
        <rect id="Rectangle_3622" data-name="Rectangle 3622" width="43.036" height="9.906" transform="matrix(0.707, -0.707, 0.707, 0.707, 668.131, 50.869)" fill="#fff"/>
        <rect id="Rectangle_3623" data-name="Rectangle 3623" width="14.21" height="9.906" transform="translate(643.424 75.575) rotate(-45)" fill="#fff"/>
        <path id="Path_21785" data-name="Path 21785" d="M217.883,272.767c-28.437,29.467-56.631,59.178-84.134,89.579,30.4-27.5,60.112-55.7,89.58-84.133,14.8-14.154,29.346-28.558,44.012-42.844l14.031-13.907H267.956l-7.229,7.293C246.441,243.422,232.037,257.969,217.883,272.767Z" transform="translate(531.938 -221.462)" fill="#fff"/>
        <path id="Path_21786" data-name="Path 21786" d="M297.24,291.8v-7.089L99.991,485.536Z" transform="translate(542.084 -240.472)" fill="#fff"/>
        <path id="Path_21787" data-name="Path 21787" d="M278.957,478.22l70.81-70.81V399l-75.013,75.013Z" transform="translate(489.557 -274.824)" fill="#fff"/>
        <path id="Path_21788" data-name="Path 21788" d="M316.521,588.239l.669-.669a4.958,4.958,0,0,0-7-7l-.669.669a4.958,4.958,0,0,0,7,7Z" transform="translate(479.512 -374.62)" fill="#fff"/>
        <path id="Path_21789" data-name="Path 21789" d="M366.228,538.233l1.364-1.364a4.958,4.958,0,0,0-7-7l-1.364,1.364a4.958,4.958,0,0,0,7,7Z" transform="translate(464.572 -352.948)" fill="#fff"/>
        <path id="Path_21790" data-name="Path 21790" d="M340.879,563.583l1.364-1.364a4.958,4.958,0,0,0-7-7l-1.364,1.364a4.958,4.958,0,0,0,7,7Z" transform="translate(472.191 -363.803)" fill="#fff"/>
        <path id="Path_21791" data-name="Path 21791" d="M334.86,670.6l30.868-31.536V626.525L327.855,663.6Z" transform="translate(473.597 -397.06)" fill="#fff"/>
        <path id="Path_21792" data-name="Path 21792" d="M-774.546,221.462-818,265.7v7.089l52.258-51.328Z" transform="translate(817.998 -221.462)" fill="#fff"/>
        <path id="Path_21793" data-name="Path 21793" d="M-693.818,221.462-818,345.641v8.405l132.585-132.585Z" transform="translate(817.998 -221.462)" fill="#fff"/>
        <path id="Path_21794" data-name="Path 21794" d="M-814.063,504.515l-1.363,1.363a4.844,4.844,0,0,0,.157,6.847,4.844,4.844,0,0,0,6.847.157l1.363-1.363a4.846,4.846,0,0,0-.157-6.848A4.846,4.846,0,0,0-814.063,504.515Z" transform="translate(817.628 -342.093)" fill="#fff"/>
        <path id="Path_21795" data-name="Path 21795" d="M-788.712,479.164l-1.365,1.364a4.846,4.846,0,0,0,.157,6.848,4.846,4.846,0,0,0,6.847.157l1.364-1.364a4.846,4.846,0,0,0-.157-6.847A4.845,4.845,0,0,0-788.712,479.164Z" transform="translate(810.009 -331.238)" fill="#fff"/>
        <path id="Path_21796" data-name="Path 21796" d="M-738.013,428.465l-1.364,1.365a4.845,4.845,0,0,0,.157,6.847,4.845,4.845,0,0,0,6.848.157l1.364-1.364a4.846,4.846,0,0,0-.157-6.847A4.846,4.846,0,0,0-738.013,428.465Z" transform="translate(794.771 -283.276)" fill="#fff"/>
        <path id="Path_21797" data-name="Path 21797" d="M-661.963,352.415l-1.364,1.365a4.845,4.845,0,0,0,.157,6.847,4.844,4.844,0,0,0,6.847.157l1.365-1.364a4.846,4.846,0,0,0-.157-6.847A4.846,4.846,0,0,0-661.963,352.415Z" transform="translate(771.913 -260.418)" fill="#fff"/>
        <path id="Path_21798" data-name="Path 21798" d="M-636.613,327.066l-1.365,1.364a4.846,4.846,0,0,0,.157,6.847,4.846,4.846,0,0,0,6.848.157l1.364-1.364a4.845,4.845,0,0,0-.157-6.848A4.845,4.845,0,0,0-636.613,327.066Z" transform="translate(764.294 -252.799)" fill="#fff"/>
        <path id="Path_21799" data-name="Path 21799" d="M-687.312,377.765l-1.364,1.364a4.844,4.844,0,0,0,.157,6.847,4.845,4.845,0,0,0,6.847.158l1.364-1.365a4.844,4.844,0,0,0-.157-6.847A4.844,4.844,0,0,0-687.312,377.765Z" transform="translate(779.532 -268.037)" fill="#fff"/>
        <path id="Path_21800" data-name="Path 21800" d="M-712.663,403.116l-1.363,1.362a4.846,4.846,0,0,0,.157,6.848,4.846,4.846,0,0,0,6.847.157l1.362-1.362a4.845,4.845,0,0,0-.157-6.847A4.845,4.845,0,0,0-712.663,403.116Z" transform="translate(787.151 -275.657)" fill="#fff"/>
        <path id="Path_21801" data-name="Path 21801" d="M-763.363,453.815l-1.364,1.364a4.844,4.844,0,0,0,.157,6.847,4.844,4.844,0,0,0,6.847.157l1.364-1.364a4.844,4.844,0,0,0-.157-6.847A4.844,4.844,0,0,0-763.363,453.815Z" transform="translate(802.39 -320.383)" fill="#fff"/>
        <path id="Path_21802" data-name="Path 21802" d="M-585.913,276.365l-1.364,1.365a4.844,4.844,0,0,0,.157,6.847,4.844,4.844,0,0,0,6.847.157l1.365-1.364a4.846,4.846,0,0,0-.157-6.847A4.846,4.846,0,0,0-585.913,276.365Z" transform="translate(749.055 -237.561)" fill="#fff"/>
        <path id="Path_21803" data-name="Path 21803" d="M-528.368,225.824a4.844,4.844,0,0,0-6.847-.157l-1.364,1.364a4.844,4.844,0,0,0,.157,6.847,4.844,4.844,0,0,0,6.847.157l1.364-1.364A4.844,4.844,0,0,0-528.368,225.824Z" transform="translate(733.817 -222.322)" fill="#fff"/>
        <path id="Path_21804" data-name="Path 21804" d="M-611.262,301.715l-1.364,1.364a4.844,4.844,0,0,0,.157,6.847,4.845,4.845,0,0,0,6.847.158l1.364-1.365a4.844,4.844,0,0,0-.157-6.847A4.844,4.844,0,0,0-611.262,301.715Z" transform="translate(756.674 -245.18)" fill="#fff"/>
        <path id="Path_21805" data-name="Path 21805" d="M-560.563,251.016l-1.365,1.364a4.846,4.846,0,0,0,.157,6.847,4.846,4.846,0,0,0,6.848.157l1.364-1.364a4.846,4.846,0,0,0-.157-6.847A4.845,4.845,0,0,0-560.563,251.016Z" transform="translate(741.436 -229.942)" fill="#fff"/>
        <path id="Path_21806" data-name="Path 21806" d="M-528.552,221.462-818,504.778v12.539l289.591-295.856Z" transform="translate(817.998 -221.462)" fill="#fff"/>
      </g>
      <g id="Group_5511" data-name="Group 5511" transform="translate(960 0)" opacity="0.86">
        <path id="Path_21696-2" data-name="Path 21696" d="M-14.146,1419.158l-1.569,1.645-.006.009H-8.9a3.044,3.044,0,0,0-.9-1.757A3.071,3.071,0,0,0-14.146,1419.158Z" transform="translate(657.753 -611.654)" fill="#fff"/>
        <path id="Path_21697-2" data-name="Path 21697" d="M11.081,1392.392l-1.569,1.645a3.714,3.714,0,0,0,5.251,5.251l1.645-1.569c.039-.037.087-.085.126-.125a3.768,3.768,0,0,0-5.453-5.2Z" transform="translate(652.917 -606.265)" fill="#fff"/>
        <path id="Path_21698-2" data-name="Path 21698" d="M36.662,1365.79l-1.579,1.634a4.261,4.261,0,0,0,6.024,6.025l1.634-1.58c.03-.03.074-.072.1-.1a4.3,4.3,0,0,0-6.183-5.976Z" transform="translate(647.844 -600.923)" fill="#fff"/>
        <path id="Path_21699-2" data-name="Path 21699" d="M62.281,1339.222l-1.585,1.628a4.763,4.763,0,0,0,6.735,6.735L69.06,1346c.026-.024.067-.065.092-.092a4.794,4.794,0,0,0-6.871-6.687Z" transform="translate(642.758 -595.588)" fill="#fff"/>
        <path id="Path_21700-2" data-name="Path 21700" d="M88.083,1312.838l-1.589,1.623a5.074,5.074,0,0,0,7.174,7.175l1.623-1.59.074-.074a5.1,5.1,0,0,0-7.282-7.134Z" transform="translate(637.626 -590.302)" fill="#fff"/>
        <path id="Path_21701-2" data-name="Path 21701" d="M113.889,1286.452l-1.59,1.623a5.377,5.377,0,0,0,7.6,7.6l1.623-1.59.078-.078a5.4,5.4,0,0,0-7.715-7.558Z" transform="translate(632.489 -585.014)" fill="#fff"/>
        <path id="Path_21702-2" data-name="Path 21702" d="M139.864,1260.25l-1.6,1.612a5.509,5.509,0,0,0,7.791,7.791l1.612-1.6.026-.026a5.516,5.516,0,0,0-7.827-7.775Z" transform="translate(627.316 -579.779)" fill="#fff"/>
        <path id="Path_21703-2" data-name="Path 21703" d="M165.864,1234.058l-1.6,1.612a5.609,5.609,0,0,0,7.933,7.933l1.612-1.6.027-.027a5.617,5.617,0,1,0-7.971-7.916Z" transform="translate(622.128 -574.541)" fill="#fff"/>
        <path id="Path_21704-2" data-name="Path 21704" d="M191.95,1207.97l-1.612,1.6-.027.027a5.623,5.623,0,0,0,7.98,7.925l1.6-1.612a5.616,5.616,0,0,0-7.942-7.942Z" transform="translate(616.927 -569.336)" fill="#fff"/>
        <path id="Path_21705-2" data-name="Path 21705" d="M218.144,1181.97l-1.612,1.6-.027.027a5.523,5.523,0,0,0,7.837,7.783l1.6-1.612a5.514,5.514,0,0,0-7.8-7.8Z" transform="translate(611.689 -535.391)" fill="#fff"/>
        <path id="Path_21706-2" data-name="Path 21706" d="M244.346,1156l-1.623,1.59c-.02.019-.06.059-.079.079a5.416,5.416,0,0,0,7.738,7.579l1.59-1.623a5.392,5.392,0,0,0-7.626-7.625Z" transform="translate(606.457 -526.88)" fill="#fff"/>
        <path id="Path_21707-2" data-name="Path 21707" d="M276.339,1139.01l1.589-1.623a5.087,5.087,0,0,0-7.194-7.194l-1.623,1.59c-.019.018-.056.056-.074.075a5.11,5.11,0,1,0,7.3,7.152Z" transform="translate(601.167 -518.387)" fill="#fff"/>
        <path id="Path_21708-2" data-name="Path 21708" d="M302.3,1112.773l1.59-1.623a4.782,4.782,0,0,0-6.762-6.762l-1.623,1.59-.07.07a4.805,4.805,0,0,0,6.865,6.725Z" transform="translate(595.878 -509.898)" fill="#fff"/>
        <path id="Path_21709-2" data-name="Path 21709" d="M321.957,1080.463a4.316,4.316,0,1,0,6.207,6l1.579-1.634a4.277,4.277,0,0,0-6.048-6.048l-1.634,1.58C322.031,1080.389,321.987,1080.432,321.957,1080.463Z" transform="translate(590.548 -501.458)" fill="#fff"/>
        <path id="Path_21710-2" data-name="Path 21710" d="M354.015,1060.129l1.568-1.646a3.732,3.732,0,0,0-5.276-5.276l-1.645,1.569c-.04.038-.09.086-.127.127a3.786,3.786,0,1,0,5.48,5.226Z" transform="translate(585.206 -493.031)" fill="#fff"/>
        <path id="Path_21711-2" data-name="Path 21711" d="M377.077,1027.782l-1.645,1.568c-.032.031-.072.071-.1.1a3.085,3.085,0,0,0,4.465,4.257l.706-.741v-5.707A3.022,3.022,0,0,0,377.077,1027.782Z" transform="translate(579.816 -484.633)" fill="#fff"/>
        <path id="Path_21712-2" data-name="Path 21712" d="M107.308,1365.81l218.479-220.692v-2.28L100.556,1365.81Z" transform="translate(634.528 -556.653)" fill="#fff"/>
        <path id="Path_21713-2" data-name="Path 21713" d="M242.065,1375.845l110.386-110.385v-16.028l-118.4,118.4Z" transform="translate(607.864 -577.943)" fill="#fff"/>
        <path id="Path_21714-2" data-name="Path 21714" d="M325.627,1410.118h15.35l29.764-29.5v-15.948l-3.918,3.885Z" transform="translate(589.573 -600.961)" fill="#fff"/>
        <path id="Path_21715-2" data-name="Path 21715" d="M-817.136,1027.961a3,3,0,0,0-.862-.62v5.707l.862-.9A3.036,3.036,0,0,0-817.136,1027.961Z" transform="translate(817.998 -484.545)" fill="#fff"/>
        <path id="Path_21716-2" data-name="Path 21716" d="M-796.026,1002.486l-1.655,1.558c-.031.03-.067.065-.1.1a2.258,2.258,0,0,0,.1,3.193,2.259,2.259,0,0,0,3.194-.1l1.557-1.655a2.2,2.2,0,0,0,0-3A2.19,2.19,0,0,0-796.026,1002.486Z" transform="translate(814.082 -476.273)" fill="#fff"/>
        <path id="Path_21717-2" data-name="Path 21717" d="M-768.975,977.341l-1.665,1.548c-.021.02-.046.043-.066.066a1.277,1.277,0,0,0,.066,1.8,1.276,1.276,0,0,0,1.8-.066l1.548-1.665a1.2,1.2,0,0,0,0-1.623A1.192,1.192,0,0,0-768.975,977.341Z" transform="translate(808.62 -467.955)" fill="#fff"/>
        <path id="Path_21718-2" data-name="Path 21718" d="M-743.367,954.152a.05.05,0,0,0,0,.071.051.051,0,0,0,.071,0l.766-.837-.837.766Z" transform="translate(803.094 -459.932)" fill="#fff"/>
        <path id="Path_21719-2" data-name="Path 21719" d="M-818,1114.9v2.28l113.068-114.214Z" transform="translate(817.998 -489.288)" fill="#fff"/>
        <path id="Path_21720-2" data-name="Path 21720" d="M-614.761,995.468-818,1198.7v16.029l211.251-211.251Z" transform="translate(817.998 -527.217)" fill="#fff"/>
        <path id="Path_21721-2" data-name="Path 21721" d="M-764.429,1279.026c16.34-16.786,32.831-33.42,49.021-50.355,32.539-33.713,64.792-67.71,96.249-102.5-34.793,31.458-68.79,63.711-102.5,96.25-16.935,16.19-33.569,32.681-50.356,49.02L-818,1317.03v15.949l4.091-4.054Z" transform="translate(817.998 -553.323)" fill="#fff"/>
        <path id="Path_21722-2" data-name="Path 21722" d="M-589.244,1209.466l-166.631,169.652H-745.8L-581.23,1217.48Z" transform="translate(805.59 -569.961)" fill="#fff"/>
        <path id="Path_21723-2" data-name="Path 21723" d="M-493.919,1238.351l-146.536,146.537h9.617l141.728-141.728Z" transform="translate(782.536 -575.73)" fill="#fff"/>
        <path id="Path_21724-2" data-name="Path 21724" d="M-509.473,1400.508l-1.56,1.561a5.543,5.543,0,0,0,.18,7.834,5.542,5.542,0,0,0,7.834.18l1.561-1.561a5.544,5.544,0,0,0-.18-7.834A5.544,5.544,0,0,0-509.473,1400.508Z" transform="translate(756.992 -607.813)" fill="#fff"/>
        <path id="Path_21725-2" data-name="Path 21725" d="M-400.06,1307.124a5.544,5.544,0,0,0-.18-7.835,5.544,5.544,0,0,0-7.835-.18l-1.561,1.561a5.545,5.545,0,0,0,.18,7.834,5.545,5.545,0,0,0,7.835.18Z" transform="translate(736.739 -587.56)" fill="#fff"/>
        <path id="Path_21726-2" data-name="Path 21726" d="M-484.124,1375.159l-1.561,1.561a5.545,5.545,0,0,0,.18,7.835,5.545,5.545,0,0,0,7.835.18l1.56-1.561a5.544,5.544,0,0,0-.18-7.834A5.544,5.544,0,0,0-484.124,1375.159Z" transform="translate(751.929 -602.75)" fill="#fff"/>
        <path id="Path_21727-2" data-name="Path 21727" d="M-433.425,1324.46l-1.559,1.56a5.544,5.544,0,0,0,.18,7.834,5.543,5.543,0,0,0,7.834.18l1.56-1.559a5.545,5.545,0,0,0-.18-7.834A5.545,5.545,0,0,0-433.425,1324.46Z" transform="translate(741.802 -592.623)" fill="#fff"/>
        <path id="Path_21728-2" data-name="Path 21728" d="M-458.774,1349.81l-1.561,1.561a5.542,5.542,0,0,0,.18,7.834,5.542,5.542,0,0,0,7.834.18l1.561-1.561a5.543,5.543,0,0,0-.18-7.834A5.542,5.542,0,0,0-458.774,1349.81Z" transform="translate(746.866 -597.686)" fill="#fff"/>
        <path id="Path_21729-2" data-name="Path 21729" d="M-382.724,1273.76l-1.561,1.561a5.542,5.542,0,0,0,.18,7.834,5.543,5.543,0,0,0,7.834.181l1.561-1.561a5.542,5.542,0,0,0-.18-7.834A5.542,5.542,0,0,0-382.724,1273.76Z" transform="translate(731.676 -582.496)" fill="#fff"/>
        <path id="Path_21730-2" data-name="Path 21730" d="M-358.171,1249.4l-.765.766a5.543,5.543,0,0,0,.18,7.833,5.542,5.542,0,0,0,7.834.18l.766-.765a5.544,5.544,0,0,0-.18-7.835A5.544,5.544,0,0,0-358.171,1249.4Z" transform="translate(726.612 -577.632)" fill="#fff"/>
        <path id="Path_21731-2" data-name="Path 21731" d="M-400.223,1416.634l-3.947,3.864h.165Z" transform="translate(735.341 -611.34)" fill="#fff"/>
        <path id="Path_21732-2" data-name="Path 21732" d="M-689.564,900.349l-.766.836.836-.766,0,0a.049.049,0,0,0,0-.07A.05.05,0,0,0-689.564,900.349Z" transform="translate(792.498 -442.647)" fill="#fff"/>
        <path id="Path_21733-2" data-name="Path 21733" d="M-664.69,876.42l1.665-1.549c.022-.02.045-.043.066-.065a1.268,1.268,0,0,0-.066-1.793,1.268,1.268,0,0,0-1.792.066l-1.548,1.664a1.189,1.189,0,0,0,0,1.614A1.186,1.186,0,0,0-664.69,876.42Z" transform="translate(787.774 -433.912)" fill="#fff"/>
        <path id="Path_21734-2" data-name="Path 21734" d="M-638.135,850.778l1.655-1.557c.03-.03.066-.065.1-.1a2.247,2.247,0,0,0-.1-3.177,2.248,2.248,0,0,0-3.177.1l-1.558,1.655a2.185,2.185,0,0,0,0,2.988A2.178,2.178,0,0,0-638.135,850.778Z" transform="translate(782.806 -425.156)" fill="#fff"/>
        <path id="Path_21735-2" data-name="Path 21735" d="M-611.654,825.068l1.644-1.569c.032-.03.072-.07.1-.1a3.071,3.071,0,0,0-.1-4.342,3.071,3.071,0,0,0-4.341.1l-1.568,1.645a3.024,3.024,0,0,0,0,4.165A3.017,3.017,0,0,0-611.654,825.068Z" transform="translate(777.801 -416.43)" fill="#fff"/>
        <path id="Path_21736-2" data-name="Path 21736" d="M-585.236,799.288l1.645-1.568c.039-.037.087-.086.126-.126a3.768,3.768,0,0,0-.126-5.326,3.768,3.768,0,0,0-5.327.125l-1.568,1.645a3.723,3.723,0,0,0,0,5.128A3.714,3.714,0,0,0-585.236,799.288Z" transform="translate(772.76 -407.721)" fill="#fff"/>
        <path id="Path_21737-2" data-name="Path 21737" d="M-558.893,773.449l1.634-1.58c.031-.03.074-.072.1-.1a4.3,4.3,0,0,0-.1-6.08,4.3,4.3,0,0,0-6.079.1l-1.579,1.634a4.267,4.267,0,0,0,0,5.922A4.261,4.261,0,0,0-558.893,773.449Z" transform="translate(767.687 -399.055)" fill="#fff"/>
        <path id="Path_21738-2" data-name="Path 21738" d="M-532.568,747.586-530.94,746c.026-.025.067-.066.092-.092a4.793,4.793,0,0,0-.092-6.778,4.794,4.794,0,0,0-6.779.091l-1.584,1.629a4.769,4.769,0,0,0,0,6.644A4.763,4.763,0,0,0-532.568,747.586Z" transform="translate(762.601 -390.39)" fill="#fff"/>
        <path id="Path_21739-2" data-name="Path 21739" d="M-506.332,721.636l1.623-1.59.074-.074a5.1,5.1,0,0,0-.074-7.208,5.1,5.1,0,0,0-7.208.074l-1.589,1.623a5.078,5.078,0,0,0,0,7.1A5.073,5.073,0,0,0-506.332,721.636Z" transform="translate(757.469 -381.772)" fill="#fff"/>
        <path id="Path_21740-2" data-name="Path 21740" d="M-480.1,695.678l1.623-1.59.078-.078a5.4,5.4,0,0,0-.078-7.637,5.4,5.4,0,0,0-7.637.078l-1.59,1.623a5.383,5.383,0,0,0,0,7.526A5.377,5.377,0,0,0-480.1,695.678Z" transform="translate(752.331 -373.144)" fill="#fff"/>
        <path id="Path_21741-2" data-name="Path 21741" d="M-453.947,669.653l1.612-1.6.026-.026a5.516,5.516,0,0,0-.026-7.8,5.516,5.516,0,0,0-7.8.026l-1.6,1.612a5.511,5.511,0,0,0,0,7.764A5.509,5.509,0,0,0-453.947,669.653Z" transform="translate(747.159 -364.579)" fill="#fff"/>
        <path id="Path_21742-2" data-name="Path 21742" d="M-427.8,643.6l1.612-1.6.027-.027a5.617,5.617,0,0,0-.026-7.943,5.617,5.617,0,0,0-7.944.027l-1.6,1.612a5.611,5.611,0,0,0,0,7.906A5.609,5.609,0,0,0-427.8,643.6Z" transform="translate(741.971 -356.006)" fill="#fff"/>
        <path id="Path_21743-2" data-name="Path 21743" d="M-401.709,617.523l1.6-1.612a5.617,5.617,0,0,0,0-7.915,5.616,5.616,0,0,0-7.942-.027l-1.612,1.6-.027.027a5.622,5.622,0,0,0,.027,7.952A5.623,5.623,0,0,0-401.709,617.523Z" transform="translate(736.769 -347.474)" fill="#fff"/>
        <path id="Path_21744-2" data-name="Path 21744" d="M-375.658,591.381l1.6-1.613a5.517,5.517,0,0,0,0-7.772,5.515,5.515,0,0,0-7.8-.026l-1.612,1.6-.027.027a5.523,5.523,0,0,0,.026,7.81A5.524,5.524,0,0,0-375.658,591.381Z" transform="translate(731.532 -338.962)" fill="#fff"/>
        <path id="Path_21745-2" data-name="Path 21745" d="M-349.618,565.246l1.59-1.623a5.4,5.4,0,0,0,0-7.547,5.393,5.393,0,0,0-7.626-.078l-1.623,1.59c-.02.019-.06.058-.079.079a5.415,5.415,0,0,0,.079,7.659A5.415,5.415,0,0,0-349.618,565.246Z" transform="translate(726.299 -330.468)" fill="#fff"/>
        <path id="Path_21746-2" data-name="Path 21746" d="M-323.661,539.01l1.589-1.623a5.092,5.092,0,0,0,0-7.12,5.087,5.087,0,0,0-7.194-.074l-1.623,1.589-.074.075a5.11,5.11,0,0,0,.074,7.227A5.111,5.111,0,0,0-323.661,539.01Z" transform="translate(721.01 -322.025)" fill="#fff"/>
        <path id="Path_21747-2" data-name="Path 21747" d="M-297.7,512.773l1.59-1.623a4.786,4.786,0,0,0,0-6.692,4.782,4.782,0,0,0-6.762-.07l-1.623,1.59-.07.07a4.806,4.806,0,0,0,.07,6.8A4.8,4.8,0,0,0-297.7,512.773Z" transform="translate(715.721 -313.585)" fill="#fff"/>
        <path id="Path_21748-2" data-name="Path 21748" d="M-271.836,486.461l1.579-1.634a4.283,4.283,0,0,0,0-5.944,4.277,4.277,0,0,0-6.048-.1l-1.634,1.58c-.03.03-.074.073-.1.1a4.315,4.315,0,0,0,.1,6.1A4.316,4.316,0,0,0-271.836,486.461Z" transform="translate(710.391 -305.226)" fill="#fff"/>
        <path id="Path_21749-2" data-name="Path 21749" d="M-245.985,460.129l1.568-1.645a3.739,3.739,0,0,0,0-5.15,3.732,3.732,0,0,0-5.276-.126l-1.645,1.569c-.04.038-.09.086-.127.127a3.786,3.786,0,0,0,.127,5.353A3.786,3.786,0,0,0-245.985,460.129Z" transform="translate(705.049 -296.885)" fill="#fff"/>
        <path id="Path_21750-2" data-name="Path 21750" d="M-220.207,433.709l1.568-1.645a3.036,3.036,0,0,0,0-4.182,3.03,3.03,0,0,0-4.284-.1l-1.645,1.568c-.032.031-.072.071-.1.1a3.084,3.084,0,0,0,.1,4.361A3.085,3.085,0,0,0-220.207,433.709Z" transform="translate(699.658 -262.504)" fill="#fff"/>
        <path id="Path_21751-2" data-name="Path 21751" d="M-194.488,407.238l1.557-1.655a2.2,2.2,0,0,0,0-3,2.19,2.19,0,0,0-3.1-.094l-1.655,1.558c-.031.03-.067.065-.1.1a2.259,2.259,0,0,0,.1,3.193A2.259,2.259,0,0,0-194.488,407.238Z" transform="translate(694.239 -257.5)" fill="#fff"/>
        <path id="Path_21752-2" data-name="Path 21752" d="M-168.838,380.691l1.548-1.665a1.2,1.2,0,0,0,0-1.623,1.192,1.192,0,0,0-1.685-.062l-1.665,1.548c-.022.02-.045.043-.066.066a1.277,1.277,0,0,0,.066,1.8A1.276,1.276,0,0,0-168.838,380.691Z" transform="translate(688.777 -252.533)" fill="#fff"/>
        <path id="Path_21753-2" data-name="Path 21753" d="M-143.294,354.22l.766-.837-.837.767,0,0a.05.05,0,0,0,0,.071A.051.051,0,0,0-143.294,354.22Z" transform="translate(683.251 -247.811)" fill="#fff"/>
        <path id="Path_21754-2" data-name="Path 21754" d="M-675.8,877.586l4.809,4.808,474.62-479.428Z" transform="translate(789.595 -303.372)" fill="#fff"/>
        <rect id="Rectangle_3618-2" data-name="Rectangle 3618" width="454.863" height="11.334" transform="translate(361.758 460.887) rotate(-45)" fill="#fff"/>
        <rect id="Rectangle_3619-2" data-name="Rectangle 3619" width="49.24" height="11.334" transform="translate(284.286 455.399) rotate(-45)" fill="#fff"/>
        <rect id="Rectangle_3620-2" data-name="Rectangle 3620" width="16.259" height="11.334" transform="translate(256.018 477.435) rotate(-45)" fill="#fff"/>
        <path id="Path_21755-2" data-name="Path 21755" d="M-363.758,827.412c16.931-16.194,33.576-32.675,50.357-49.02l49.909-49.467,49.478-49.9c16.34-16.785,32.831-33.42,49.021-50.355,32.539-33.713,64.792-67.71,96.249-102.5-34.793,31.458-68.791,63.711-102.5,96.25-16.935,16.19-33.569,32.681-50.356,49.02l-49.9,49.479-49.467,49.909c-16.345,16.781-32.826,33.425-49.02,50.357-32.536,33.715-64.794,67.708-96.262,102.492C-431.467,892.206-397.473,859.948-363.758,827.412Z" transform="translate(747.741 -347.814)" fill="#fff"/>
        <path id="Path_21756-2" data-name="Path 21756" d="M-57.98,609.466l-442.028,450.043L-49.966,617.481Z" transform="translate(754.483 -390.941)" fill="#fff"/>
        <rect id="Rectangle_3621-2" data-name="Rectangle 3621" width="529.542" height="6.8" transform="translate(394.331 621.276) rotate(-45)" fill="#fff"/>
        <path id="Path_21757-2" data-name="Path 21757" d="M-289.525,1180.758l-.765.766a5.543,5.543,0,0,0,.18,7.834,5.543,5.543,0,0,0,7.834.18l.766-.765a5.544,5.544,0,0,0-.18-7.834A5.545,5.545,0,0,0-289.525,1180.758Z" transform="translate(712.901 -534.914)" fill="#fff"/>
        <path id="Path_21758-2" data-name="Path 21758" d="M122.33,784.734l1.561-1.561a5.673,5.673,0,0,0-8.015-8.015l-1.561,1.56a5.673,5.673,0,0,0,8.015,8.015Z" transform="translate(632.086 -402.23)" fill="#fff"/>
        <path id="Path_21759-2" data-name="Path 21759" d="M96.98,810.083l1.561-1.56a5.673,5.673,0,0,0-8.015-8.015l-1.561,1.561a5.673,5.673,0,0,0,8.014,8.014Z" transform="translate(637.149 -410.529)" fill="#fff"/>
        <path id="Path_21760-2" data-name="Path 21760" d="M71.629,835.434l1.561-1.561a5.673,5.673,0,0,0-8.014-8.014l-1.561,1.56a5.673,5.673,0,0,0,8.014,8.014Z" transform="translate(642.213 -418.829)" fill="#fff"/>
        <path id="Path_21761-2" data-name="Path 21761" d="M141.226,749.81l-1.56,1.561a5.673,5.673,0,0,0,8.014,8.014l1.56-1.56a5.673,5.673,0,0,0-8.014-8.014Z" transform="translate(627.023 -393.931)" fill="#fff"/>
        <path id="Path_21762-2" data-name="Path 21762" d="M198.38,708.684l1.561-1.56a5.673,5.673,0,0,0-8.015-8.015l-1.561,1.561a5.673,5.673,0,0,0,8.015,8.015Z" transform="translate(616.896 -377.333)" fill="#fff"/>
        <path id="Path_21763-2" data-name="Path 21763" d="M223.729,683.335l1.561-1.561a5.673,5.673,0,0,0-8.014-8.014l-1.561,1.561a5.673,5.673,0,0,0,8.014,8.015Z" transform="translate(611.833 -369.034)" fill="#fff"/>
        <path id="Path_21764-2" data-name="Path 21764" d="M173.03,734.034l1.56-1.559a5.673,5.673,0,0,0-8.015-8.015l-1.559,1.56a5.673,5.673,0,0,0,8.014,8.014Z" transform="translate(621.959 -385.633)" fill="#fff"/>
        <path id="Path_21765-2" data-name="Path 21765" d="M-80.469,987.533l1.561-1.561a5.542,5.542,0,0,0-.18-7.834,5.543,5.543,0,0,0-7.834-.18l-1.561,1.561a5.542,5.542,0,0,0,.18,7.834A5.543,5.543,0,0,0-80.469,987.533Z" transform="translate(672.593 -468.623)" fill="#fff"/>
        <path id="Path_21766-2" data-name="Path 21766" d="M-55.12,962.183l1.561-1.56a5.545,5.545,0,0,0-.18-7.835,5.545,5.545,0,0,0-7.835-.18l-1.561,1.561a5.543,5.543,0,0,0,.18,7.834A5.542,5.542,0,0,0-55.12,962.183Z" transform="translate(667.529 -460.324)" fill="#fff"/>
        <path id="Path_21767-2" data-name="Path 21767" d="M-29.77,936.834l1.561-1.561a5.543,5.543,0,0,0-.18-7.834,5.543,5.543,0,0,0-7.834-.18l-1.561,1.561a5.545,5.545,0,0,0,.18,7.834A5.545,5.545,0,0,0-29.77,936.834Z" transform="translate(662.466 -452.025)" fill="#fff"/>
        <path id="Path_21768-2" data-name="Path 21768" d="M-105.818,1012.883l1.559-1.559a5.544,5.544,0,0,0-.18-7.835,5.543,5.543,0,0,0-7.834-.18l-1.56,1.559a5.545,5.545,0,0,0,.18,7.834A5.544,5.544,0,0,0-105.818,1012.883Z" transform="translate(677.656 -476.923)" fill="#fff"/>
        <path id="Path_21769-2" data-name="Path 21769" d="M-232.569,1139.632l1.561-1.561a5.542,5.542,0,0,0-.18-7.834,5.542,5.542,0,0,0-7.834-.18l-1.561,1.56a5.543,5.543,0,0,0,.18,7.834A5.542,5.542,0,0,0-232.569,1139.632Z" transform="translate(702.973 -518.418)" fill="#fff"/>
        <path id="Path_21770-2" data-name="Path 21770" d="M-207.218,1114.282l1.56-1.559a5.544,5.544,0,0,0-.18-7.834,5.545,5.545,0,0,0-7.835-.18l-1.559,1.56a5.543,5.543,0,0,0,.18,7.834A5.542,5.542,0,0,0-207.218,1114.282Z" transform="translate(697.909 -510.119)" fill="#fff"/>
        <path id="Path_21771-2" data-name="Path 21771" d="M-131.169,1038.234l1.561-1.561a5.545,5.545,0,0,0-.18-7.835,5.545,5.545,0,0,0-7.835-.18l-1.561,1.561a5.543,5.543,0,0,0,.18,7.834A5.543,5.543,0,0,0-131.169,1038.234Z" transform="translate(682.719 -485.222)" fill="#fff"/>
        <path id="Path_21772-2" data-name="Path 21772" d="M-4.419,911.482l1.561-1.56a5.543,5.543,0,0,0-.18-7.834,5.542,5.542,0,0,0-7.834-.18l-1.561,1.56a5.543,5.543,0,0,0,.18,7.834A5.542,5.542,0,0,0-4.419,911.482Z" transform="translate(657.403 -443.726)" fill="#fff"/>
        <path id="Path_21773-2" data-name="Path 21773" d="M-181.868,1088.932l1.56-1.561a5.544,5.544,0,0,0-.18-7.834,5.544,5.544,0,0,0-7.835-.18l-1.56,1.56a5.545,5.545,0,0,0,.18,7.835A5.545,5.545,0,0,0-181.868,1088.932Z" transform="translate(692.846 -501.82)" fill="#fff"/>
        <path id="Path_21774-2" data-name="Path 21774" d="M46.28,860.784l1.561-1.56a5.673,5.673,0,0,0-8.014-8.015l-1.561,1.56a5.673,5.673,0,0,0,8.015,8.015Z" transform="translate(647.276 -427.128)" fill="#fff"/>
        <path id="Path_21775-2" data-name="Path 21775" d="M20.93,886.133l1.561-1.561a5.673,5.673,0,0,0-8.015-8.015l-1.561,1.562a5.542,5.542,0,0,0,.18,7.834A5.543,5.543,0,0,0,20.93,886.133Z" transform="translate(652.339 -435.427)" fill="#fff"/>
        <path id="Path_21776-2" data-name="Path 21776" d="M-257.918,1164.982l1.56-1.56a5.544,5.544,0,0,0-.18-7.835,5.544,5.544,0,0,0-7.834-.18l-1.561,1.561a5.545,5.545,0,0,0,.18,7.834A5.544,5.544,0,0,0-257.918,1164.982Z" transform="translate(708.036 -526.717)" fill="#fff"/>
        <path id="Path_21777-2" data-name="Path 21777" d="M-156.519,1063.582l1.561-1.561a5.542,5.542,0,0,0-.18-7.834,5.542,5.542,0,0,0-7.834-.18l-1.561,1.56a5.543,5.543,0,0,0,.18,7.834A5.543,5.543,0,0,0-156.519,1063.582Z" transform="translate(687.783 -493.521)" fill="#fff"/>
        <path id="Path_21778-2" data-name="Path 21778" d="M249.078,658.184l.766-.765a5.673,5.673,0,0,0-8.015-8.015l-.765.766a5.673,5.673,0,0,0,8.014,8.014Z" transform="translate(606.77 -361.015)" fill="#fff"/>
        <path id="Path_21779-2" data-name="Path 21779" d="M-272.145,1187.068l8.014,8.014L106.3,816.633Z" transform="translate(708.97 -491.497)" fill="#fff"/>
        <path id="Path_21780-2" data-name="Path 21780" d="M-89.491,300.416a.049.049,0,0,0,0-.07.05.05,0,0,0-.07,0l-.766.836.836-.766Z" transform="translate(672.655 -237.215)" fill="#fff"/>
        <path id="Path_21781-2" data-name="Path 21781" d="M-64.69,276.42l1.665-1.549c.022-.02.045-.043.066-.065a1.268,1.268,0,0,0-.066-1.793,1.268,1.268,0,0,0-1.792.066l-1.548,1.665a1.189,1.189,0,0,0,0,1.614A1.185,1.185,0,0,0-64.69,276.42Z" transform="translate(667.932 -231.691)" fill="#fff"/>
        <path id="Path_21782-2" data-name="Path 21782" d="M-38.135,250.778l1.655-1.557c.03-.03.066-.065.1-.1a2.247,2.247,0,0,0-.1-3.177,2.247,2.247,0,0,0-3.177.1l-1.558,1.655a2.185,2.185,0,0,0,0,2.988A2.178,2.178,0,0,0-38.135,250.778Z" transform="translate(662.963 -226.23)" fill="#fff"/>
        <path id="Path_21783-2" data-name="Path 21783" d="M-15.919,225.618a3.017,3.017,0,0,0,4.265.1l1.644-1.569c.032-.03.072-.07.1-.1a3.052,3.052,0,0,0,.8-2.585h-6.82A3.022,3.022,0,0,0-15.919,225.618Z" transform="translate(657.958 -221.462)" fill="#fff"/>
        <path id="Path_21784-2" data-name="Path 21784" d="M-70.989,365.984,72.083,221.462H65.331L-75.8,361.175Z" transform="translate(669.752 -221.462)" fill="#fff"/>
        <rect id="Rectangle_3622-2" data-name="Rectangle 3622" width="49.24" height="11.334" transform="matrix(0.707, -0.707, 0.707, 0.707, 764.443, 58.201)" fill="#fff"/>
        <rect id="Rectangle_3623-2" data-name="Rectangle 3623" width="16.259" height="11.334" transform="translate(736.175 86.47) rotate(-45)" fill="#fff"/>
        <path id="Path_21785-2" data-name="Path 21785" d="M230.011,280.163c-32.536,33.715-64.794,67.708-96.262,102.492,34.784-31.467,68.778-63.725,102.493-96.261,16.931-16.194,33.576-32.675,50.356-49.02l16.054-15.912H287.3l-8.271,8.344C262.686,246.587,246.205,263.232,230.011,280.163Z" transform="translate(627.898 -221.462)" fill="#fff"/>
        <path id="Path_21786-2" data-name="Path 21786" d="M325.674,292.822v-8.111L99.991,514.486Z" transform="translate(634.641 -234.095)" fill="#fff"/>
        <path id="Path_21787-2" data-name="Path 21787" d="M279.563,489.639l81.018-81.018V399L274.755,484.83Z" transform="translate(599.734 -256.923)" fill="#fff"/>
        <path id="Path_21788-2" data-name="Path 21788" d="M317.724,589.538l.766-.765a5.673,5.673,0,0,0-8.015-8.015l-.765.766a5.673,5.673,0,0,0,8.014,8.014Z" transform="translate(593.058 -338.549)" fill="#fff"/>
        <path id="Path_21789-2" data-name="Path 21789" d="M367.431,539.632l1.561-1.56a5.673,5.673,0,0,0-8.014-8.014l-1.561,1.561a5.673,5.673,0,0,0,8.014,8.014Z" transform="translate(583.13 -321.988)" fill="#fff"/>
        <path id="Path_21790-2" data-name="Path 21790" d="M342.082,564.982l1.561-1.56a5.673,5.673,0,0,0-8.015-8.015l-1.56,1.561a5.673,5.673,0,0,0,8.015,8.015Z" transform="translate(588.193 -330.287)" fill="#fff"/>
        <path id="Path_21791-2" data-name="Path 21791" d="M335.87,676.954l35.317-36.082V626.525l-43.332,42.414Z" transform="translate(589.128 -356.22)" fill="#fff"/>
        <path id="Path_21792-2" data-name="Path 21792" d="M-768.283,221.462-818,272.078v8.111l59.791-58.727Z" transform="translate(817.998 -221.462)" fill="#fff"/>
        <path id="Path_21793-2" data-name="Path 21793" d="M-675.917,221.462-818,363.542v9.617l151.7-151.7Z" transform="translate(817.998 -221.462)" fill="#fff"/>
        <path id="Path_21794-2" data-name="Path 21794" d="M-813.673,504.708l-1.559,1.56a5.542,5.542,0,0,0,.18,7.834,5.543,5.543,0,0,0,7.834.18l1.56-1.559a5.545,5.545,0,0,0-.18-7.835A5.545,5.545,0,0,0-813.673,504.708Z" transform="translate(817.752 -313.689)" fill="#fff"/>
        <path id="Path_21795-2" data-name="Path 21795" d="M-788.322,479.357l-1.561,1.56a5.545,5.545,0,0,0,.18,7.835,5.545,5.545,0,0,0,7.835.18l1.56-1.56a5.544,5.544,0,0,0-.18-7.835A5.543,5.543,0,0,0-788.322,479.357Z" transform="translate(812.689 -305.39)" fill="#fff"/>
        <path id="Path_21796-2" data-name="Path 21796" d="M-737.623,428.658l-1.56,1.561a5.543,5.543,0,0,0,.18,7.834,5.544,5.544,0,0,0,7.835.18l1.56-1.561a5.545,5.545,0,0,0-.18-7.835A5.545,5.545,0,0,0-737.623,428.658Z" transform="translate(802.562 -262.54)" fill="#fff"/>
        <path id="Path_21797-2" data-name="Path 21797" d="M-661.573,352.608l-1.561,1.561a5.543,5.543,0,0,0,.18,7.834,5.542,5.542,0,0,0,7.834.18l1.561-1.56a5.545,5.545,0,0,0-.18-7.835A5.545,5.545,0,0,0-661.573,352.608Z" transform="translate(787.372 -247.35)" fill="#fff"/>
        <path id="Path_21798-2" data-name="Path 21798" d="M-636.224,327.259l-1.561,1.561a5.545,5.545,0,0,0,.18,7.834,5.545,5.545,0,0,0,7.835.18l1.561-1.56a5.544,5.544,0,0,0-.18-7.835A5.543,5.543,0,0,0-636.224,327.259Z" transform="translate(782.309 -242.287)" fill="#fff"/>
        <path id="Path_21799-2" data-name="Path 21799" d="M-686.922,377.958l-1.56,1.56a5.542,5.542,0,0,0,.18,7.834,5.543,5.543,0,0,0,7.834.181l1.56-1.561a5.542,5.542,0,0,0-.18-7.834A5.542,5.542,0,0,0-686.922,377.958Z" transform="translate(792.435 -252.413)" fill="#fff"/>
        <path id="Path_21800-2" data-name="Path 21800" d="M-712.273,403.309l-1.56,1.559a5.545,5.545,0,0,0,.18,7.835,5.544,5.544,0,0,0,7.834.18l1.559-1.559a5.543,5.543,0,0,0-.18-7.835A5.543,5.543,0,0,0-712.273,403.309Z" transform="translate(797.499 -257.477)" fill="#fff"/>
        <path id="Path_21801-2" data-name="Path 21801" d="M-762.973,454.008l-1.561,1.561a5.543,5.543,0,0,0,.18,7.834,5.542,5.542,0,0,0,7.834.18l1.561-1.561a5.542,5.542,0,0,0-.18-7.834A5.542,5.542,0,0,0-762.973,454.008Z" transform="translate(807.626 -297.091)" fill="#fff"/>
        <path id="Path_21802-2" data-name="Path 21802" d="M-585.523,276.558l-1.56,1.561a5.543,5.543,0,0,0,.18,7.834,5.543,5.543,0,0,0,7.834.18l1.561-1.56a5.544,5.544,0,0,0-.18-7.834A5.544,5.544,0,0,0-585.523,276.558Z" transform="translate(772.182 -232.16)" fill="#fff"/>
        <path id="Path_21803-2" data-name="Path 21803" d="M-526.991,226.04a5.542,5.542,0,0,0-7.834-.18l-1.561,1.561a5.542,5.542,0,0,0,.18,7.834,5.542,5.542,0,0,0,7.834.18l1.561-1.561A5.542,5.542,0,0,0-526.991,226.04Z" transform="translate(762.056 -222.034)" fill="#fff"/>
        <path id="Path_21804-2" data-name="Path 21804" d="M-610.872,301.908l-1.561,1.561a5.543,5.543,0,0,0,.18,7.834,5.543,5.543,0,0,0,7.834.181l1.56-1.561a5.543,5.543,0,0,0-.18-7.834A5.543,5.543,0,0,0-610.872,301.908Z" transform="translate(777.245 -237.223)" fill="#fff"/>
        <path id="Path_21805-2" data-name="Path 21805" d="M-560.174,251.209l-1.561,1.561a5.545,5.545,0,0,0,.18,7.835,5.545,5.545,0,0,0,7.835.18l1.56-1.56a5.544,5.544,0,0,0-.18-7.835A5.543,5.543,0,0,0-560.174,251.209Z" transform="translate(767.119 -227.097)" fill="#fff"/>
        <path id="Path_21806-2" data-name="Path 21806" d="M-486.828,221.462-818,545.619v14.347l331.335-338.5Z" transform="translate(817.998 -221.462)" fill="#fff"/>
      </g>
    </g>
  </g>
</svg>
