<svg xmlns="http://www.w3.org/2000/svg" width="1345.128" height="1315.557" viewBox="0 0 1345.128 1315.557">
  <g id="Group_6117" data-name="Group 6117" transform="translate(2268.829 -2255.067)" opacity="0.31">
    <g id="Group_6116" data-name="Group 6116" transform="translate(-2268.476 2255.42)">
      <path id="Path_24710" data-name="Path 24710" d="M-2136.385,1512.411c-17.164-17.164-29.435-4.894-46.6-22.058s-4.894-29.435-22.057-46.6-29.434-4.893-46.6-22.057-4.893-29.435-22.057-46.6-29.434-4.894-46.6-22.058-4.894-29.435-22.057-46.6-29.434-4.893-46.6-22.057-4.893-29.435-22.057-46.6-29.435-4.894-46.6-22.058-4.894-29.435-22.057-46.6-29.435-4.893-46.6-22.057-4.894-29.434-22.058-46.6-29.435-4.894-46.6-22.058-4.894-29.435-22.058-46.6-29.435-4.893-46.6-22.058-4.894-29.435-22.059-46.6-29.434-4.893-46.6-22.057-4.894-29.435-22.058-46.6-29.435-4.894-46.6-22.058-4.895-29.435-22.059-46.6-29.435-4.894-46.6-22.059" transform="translate(3480.806 -803.787)" fill="none" stroke="#dd0069" stroke-miterlimit="10" stroke-width="1"/>
      <path id="Path_24711" data-name="Path 24711" d="M-2035.215,1612.746c-17.164-17.164-29.434-4.893-46.6-22.058s-4.894-29.434-22.058-46.6-29.434-4.894-46.6-22.057-4.894-29.434-22.057-46.6-29.435-4.894-46.6-22.058-4.894-29.435-22.058-46.6-29.434-4.893-46.6-22.057-4.894-29.435-22.057-46.6-29.434-4.894-46.6-22.058-4.893-29.435-22.058-46.6-29.434-4.893-46.6-22.057-4.895-29.435-22.058-46.6-29.435-4.894-46.6-22.058-4.894-29.434-22.059-46.6-29.434-4.894-46.6-22.058-4.894-29.435-22.058-46.6-29.435-4.893-46.6-22.057-4.894-29.435-22.058-46.6-29.434-4.894-46.6-22.058-4.895-29.436-22.059-46.6-29.435-4.894-46.6-22.059" transform="translate(3364.728 -889.337)" fill="none" stroke="#dd0069" stroke-miterlimit="10" stroke-width="1"/>
      <path id="Path_24712" data-name="Path 24712" d="M-1934.046,1713.082c-17.164-17.164-29.435-4.894-46.6-22.058s-4.894-29.434-22.058-46.6-29.434-4.894-46.6-22.057-4.894-29.434-22.057-46.6-29.435-4.893-46.6-22.058-4.894-29.434-22.058-46.6-29.435-4.893-46.6-22.057-4.894-29.434-22.057-46.6-29.434-4.894-46.6-22.058-4.894-29.435-22.058-46.6-29.435-4.894-46.6-22.057-4.894-29.435-22.057-46.6-29.435-4.894-46.6-22.058-4.894-29.435-22.057-46.6-29.436-4.894-46.6-22.058-4.894-29.435-22.059-46.6-29.434-4.894-46.6-22.057-4.894-29.435-22.058-46.6-29.435-4.894-46.6-22.058-4.894-29.435-22.059-46.6-29.435-4.895-46.6-22.06" transform="translate(3248.65 -974.887)" fill="none" stroke="#dd0069" stroke-miterlimit="10" stroke-width="1"/>
      <path id="Path_24713" data-name="Path 24713" d="M-1832.878,1813.419c-17.164-17.164-29.435-4.894-46.6-22.058s-4.893-29.435-22.057-46.6-29.434-4.894-46.6-22.057-4.894-29.435-22.057-46.6-29.434-4.894-46.6-22.058-4.894-29.435-22.058-46.6-29.434-4.893-46.6-22.057-4.893-29.434-22.057-46.6-29.435-4.894-46.6-22.058-4.894-29.435-22.058-46.6-29.434-4.893-46.6-22.057-4.893-29.435-22.058-46.6-29.435-4.894-46.6-22.058-4.894-29.435-22.057-46.6-29.435-4.893-46.6-22.058-4.894-29.435-22.058-46.6-29.435-4.893-46.6-22.057-4.894-29.435-22.058-46.6-29.435-4.893-46.6-22.058-4.895-29.435-22.06-46.6-29.435-4.894-46.6-22.059" transform="translate(3132.574 -1060.438)" fill="none" stroke="#dd0069" stroke-miterlimit="10" stroke-width="1"/>
      <path id="Path_24714" data-name="Path 24714" d="M-1731.71,1913.755c-17.164-17.164-29.435-4.893-46.6-22.057s-4.893-29.435-22.058-46.6-29.434-4.894-46.6-22.057-4.893-29.435-22.058-46.6-29.434-4.893-46.6-22.058-4.893-29.435-22.058-46.6-29.434-4.893-46.6-22.057-4.894-29.434-22.058-46.6-29.434-4.894-46.6-22.058-4.894-29.435-22.059-46.6-29.434-4.894-46.6-22.057-4.894-29.435-22.058-46.6-29.435-4.893-46.6-22.058-4.894-29.435-22.058-46.6-29.435-4.894-46.6-22.058-4.894-29.435-22.058-46.6-29.434-4.893-46.6-22.057-4.894-29.435-22.057-46.6-29.434-4.893-46.6-22.057-4.894-29.436-22.059-46.6-29.435-4.894-46.6-22.059" transform="translate(3016.496 -1145.988)" fill="none" stroke="#dd0069" stroke-miterlimit="10" stroke-width="1"/>
      <path id="Path_24715" data-name="Path 24715" d="M-1630.54,2014.091c-17.164-17.164-29.435-4.894-46.6-22.057s-4.894-29.435-22.058-46.6-29.434-4.893-46.6-22.057-4.893-29.435-22.057-46.6-29.435-4.894-46.6-22.058-4.894-29.435-22.058-46.6-29.434-4.893-46.6-22.057-4.894-29.434-22.057-46.6-29.435-4.894-46.6-22.058-4.894-29.435-22.058-46.6-29.434-4.893-46.6-22.058-4.894-29.434-22.058-46.6-29.434-4.894-46.6-22.058-4.893-29.435-22.058-46.6-29.435-4.894-46.6-22.058-4.894-29.435-22.058-46.6-29.435-4.894-46.6-22.058-4.894-29.435-22.058-46.6-29.435-4.894-46.6-22.058-4.895-29.435-22.06-46.6-29.435-4.894-46.6-22.059" transform="translate(2900.418 -1231.538)" fill="none" stroke="#dd0069" stroke-miterlimit="10" stroke-width="1"/>
      <path id="Path_24716" data-name="Path 24716" d="M-1529.371,2114.427c-17.164-17.164-29.435-4.894-46.6-22.057s-4.894-29.435-22.057-46.6-29.435-4.894-46.6-22.058-4.894-29.434-22.058-46.6-29.434-4.894-46.6-22.058-4.893-29.435-22.057-46.6-29.434-4.893-46.6-22.057-4.893-29.435-22.057-46.6-29.435-4.893-46.6-22.058-4.894-29.434-22.058-46.6-29.435-4.893-46.6-22.058-4.894-29.434-22.058-46.6-29.435-4.894-46.6-22.058-4.894-29.435-22.058-46.6-29.435-4.894-46.6-22.058-4.894-29.435-22.058-46.6-29.434-4.893-46.6-22.057-4.894-29.435-22.058-46.6-29.435-4.894-46.6-22.058-4.894-29.435-22.059-46.6-29.435-4.894-46.6-22.059" transform="translate(2784.34 -1317.088)" fill="none" stroke="#dd0069" stroke-miterlimit="10" stroke-width="1"/>
      <path id="Path_24717" data-name="Path 24717" d="M-1428.2,2214.763c-17.164-17.164-29.435-4.893-46.6-22.057s-4.893-29.434-22.057-46.6-29.435-4.893-46.6-22.058-4.894-29.435-22.058-46.6-29.435-4.893-46.6-22.058-4.893-29.435-22.058-46.6-29.434-4.893-46.6-22.057-4.893-29.434-22.057-46.6-29.435-4.894-46.6-22.058-4.894-29.435-22.058-46.6-29.435-4.893-46.6-22.058-4.894-29.434-22.058-46.6-29.435-4.894-46.6-22.058-4.893-29.435-22.058-46.6-29.435-4.893-46.6-22.058-4.894-29.435-22.058-46.6-29.435-4.893-46.6-22.057-4.894-29.435-22.058-46.6-29.434-4.894-46.6-22.058-4.894-29.435-22.059-46.6-29.436-4.894-46.6-22.059" transform="translate(2668.262 -1402.638)" fill="none" stroke="#dd0069" stroke-miterlimit="10" stroke-width="1"/>
      <path id="Path_24718" data-name="Path 24718" d="M-1327.034,2315.1c-17.164-17.165-29.434-4.893-46.6-22.057s-4.894-29.435-22.057-46.6-29.434-4.894-46.6-22.057-4.894-29.435-22.057-46.6-29.435-4.893-46.6-22.057-4.894-29.435-22.058-46.6-29.434-4.894-46.6-22.057-4.893-29.434-22.057-46.6-29.435-4.893-46.6-22.057-4.894-29.435-22.058-46.6-29.435-4.893-46.6-22.057-4.893-29.435-22.058-46.6-29.434-4.894-46.6-22.058-4.894-29.435-22.058-46.6-29.435-4.894-46.6-22.058-4.894-29.435-22.058-46.6-29.435-4.893-46.6-22.057-4.894-29.435-22.058-46.6-29.434-4.894-46.6-22.058-4.894-29.435-22.059-46.6-29.435-4.894-46.6-22.059" transform="translate(2552.185 -1488.189)" fill="none" stroke="#dd0069" stroke-miterlimit="10" stroke-width="1"/>
      <path id="Path_24719" data-name="Path 24719" d="M-1225.865,2415.436c-17.164-17.164-29.435-4.894-46.6-22.058s-4.893-29.434-22.057-46.6-29.435-4.893-46.6-22.057-4.894-29.435-22.057-46.6-29.435-4.894-46.6-22.058-4.893-29.435-22.058-46.6-29.434-4.893-46.6-22.057-4.893-29.434-22.057-46.6-29.435-4.894-46.6-22.059-4.893-29.434-22.058-46.6-29.434-4.894-46.6-22.058-4.894-29.434-22.058-46.6-29.434-4.894-46.6-22.058-4.894-29.435-22.058-46.6-29.435-4.894-46.6-22.058-4.894-29.435-22.058-46.6-29.434-4.893-46.6-22.057-4.893-29.434-22.058-46.6-29.435-4.893-46.6-22.057-4.894-29.435-22.059-46.6-29.436-4.894-46.6-22.059" transform="translate(2436.108 -1573.739)" fill="none" stroke="#dd0069" stroke-miterlimit="10" stroke-width="1"/>
      <path id="Path_24720" data-name="Path 24720" d="M-1124.7,2515.772c-17.164-17.164-29.435-4.893-46.6-22.057s-4.894-29.435-22.057-46.6-29.435-4.893-46.6-22.057-4.894-29.434-22.058-46.6-29.435-4.893-46.6-22.058-4.894-29.435-22.057-46.6-29.434-4.893-46.6-22.057-4.893-29.434-22.057-46.6-29.434-4.893-46.6-22.058-4.893-29.434-22.058-46.6-29.435-4.894-46.6-22.058-4.893-29.435-22.057-46.6-29.435-4.894-46.6-22.058-4.894-29.434-22.058-46.6-29.435-4.894-46.6-22.058-4.894-29.435-22.058-46.6-29.434-4.893-46.6-22.057-4.894-29.435-22.058-46.6-29.435-4.894-46.6-22.058-4.894-29.436-22.059-46.6-29.435-4.894-46.6-22.059" transform="translate(2320.03 -1659.289)" fill="none" stroke="#dd0069" stroke-miterlimit="10" stroke-width="1"/>
      <path id="Path_24721" data-name="Path 24721" d="M-1023.527,2616.108c-17.164-17.164-29.435-4.893-46.6-22.058s-4.894-29.434-22.058-46.6-29.435-4.894-46.6-22.058-4.893-29.435-22.057-46.6-29.435-4.893-46.6-22.058-4.893-29.434-22.058-46.6-29.434-4.893-46.6-22.057-4.894-29.434-22.057-46.6-29.435-4.894-46.6-22.058-4.893-29.435-22.057-46.6-29.435-4.893-46.6-22.058-4.893-29.434-22.058-46.6-29.435-4.894-46.6-22.058-4.894-29.435-22.058-46.6-29.435-4.893-46.6-22.058-4.894-29.434-22.058-46.6-29.434-4.894-46.6-22.058-4.893-29.435-22.058-46.6-29.435-4.894-46.6-22.057-4.894-29.436-22.059-46.6-29.435-4.894-46.6-22.059" transform="translate(2203.953 -1744.839)" fill="none" stroke="#dd0069" stroke-miterlimit="10" stroke-width="1"/>
      <path id="Path_24722" data-name="Path 24722" d="M-922.358,2716.444c-17.164-17.164-29.435-4.894-46.6-22.058s-4.894-29.435-22.058-46.6-29.434-4.894-46.6-22.057-4.893-29.434-22.057-46.6-29.435-4.894-46.6-22.058-4.894-29.435-22.058-46.6-29.434-4.894-46.6-22.057-4.893-29.435-22.057-46.6-29.435-4.894-46.6-22.057-4.894-29.435-22.057-46.6-29.435-4.893-46.6-22.058-4.894-29.434-22.058-46.6-29.435-4.894-46.6-22.058-4.894-29.434-22.058-46.6-29.434-4.894-46.6-22.058-4.894-29.435-22.058-46.6-29.435-4.893-46.6-22.057-4.894-29.434-22.058-46.6-29.435-4.894-46.6-22.057-4.894-29.436-22.059-46.6-29.435-4.894-46.6-22.059" transform="translate(2087.875 -1830.389)" fill="none" stroke="#dd0069" stroke-miterlimit="10" stroke-width="1"/>
      <path id="Path_24723" data-name="Path 24723" d="M-821.189,2816.781c-17.164-17.164-29.434-4.893-46.6-22.058s-4.894-29.434-22.057-46.6-29.434-4.893-46.6-22.057-4.894-29.435-22.057-46.6-29.435-4.893-46.6-22.058-4.893-29.434-22.058-46.6-29.434-4.892-46.6-22.057-4.893-29.434-22.057-46.6-29.435-4.894-46.6-22.058-4.894-29.435-22.058-46.6-29.434-4.893-46.6-22.057-4.893-29.435-22.058-46.6-29.434-4.894-46.6-22.058-4.894-29.435-22.058-46.6-29.435-4.893-46.6-22.059-4.894-29.434-22.058-46.6-29.434-4.894-46.6-22.057-4.894-29.435-22.058-46.6-29.435-4.893-46.6-22.058-4.895-29.435-22.059-46.6-29.436-4.894-46.6-22.059" transform="translate(1971.797 -1915.939)" fill="none" stroke="#dd0069" stroke-miterlimit="10" stroke-width="1"/>
      <path id="Path_24724" data-name="Path 24724" d="M-720.021,2917.118c-17.164-17.164-29.435-4.894-46.6-22.058s-4.893-29.434-22.057-46.6-29.434-4.893-46.6-22.057-4.893-29.435-22.057-46.6-29.435-4.893-46.6-22.058-4.893-29.434-22.058-46.6-29.434-4.893-46.6-22.058-4.893-29.434-22.057-46.6-29.435-4.893-46.6-22.057-4.894-29.435-22.058-46.6-29.435-4.893-46.6-22.057-4.893-29.435-22.057-46.6-29.435-4.894-46.6-22.058-4.894-29.435-22.058-46.6-29.435-4.894-46.6-22.058-4.894-29.435-22.058-46.6-29.435-4.893-46.6-22.057-4.893-29.435-22.058-46.6-29.435-4.893-46.6-22.057-4.895-29.436-22.06-46.6-29.435-4.894-46.6-22.059" transform="translate(1855.72 -2001.49)" fill="none" stroke="#dd0069" stroke-miterlimit="10" stroke-width="1"/>
      <path id="Path_24725" data-name="Path 24725" d="M-618.851,3017.453c-17.164-17.163-29.435-4.893-46.6-22.057s-4.894-29.434-22.058-46.6-29.434-4.894-46.6-22.058-4.894-29.435-22.058-46.6-29.435-4.894-46.6-22.058-4.894-29.435-22.057-46.6-29.434-4.893-46.6-22.057-4.893-29.434-22.057-46.6-29.435-4.894-46.6-22.058-4.894-29.435-22.057-46.6-29.434-4.894-46.6-22.058-4.893-29.434-22.057-46.6-29.435-4.894-46.6-22.058-4.893-29.435-22.058-46.6-29.435-4.894-46.6-22.058-4.894-29.435-22.058-46.6-29.434-4.894-46.6-22.057-4.893-29.435-22.058-46.6-29.434-4.894-46.6-22.058-4.894-29.435-22.059-46.6-29.435-4.894-46.6-22.059" transform="translate(1739.642 -2087.04)" fill="none" stroke="#dd0069" stroke-miterlimit="10" stroke-width="1"/>
      <path id="Path_24726" data-name="Path 24726" d="M-517.684,3117.789c-17.164-17.164-29.435-4.893-46.6-22.057s-4.893-29.435-22.057-46.6-29.435-4.893-46.6-22.058-4.893-29.434-22.058-46.6-29.434-4.893-46.6-22.058-4.893-29.435-22.058-46.6-29.434-4.893-46.6-22.057-4.893-29.434-22.057-46.6-29.435-4.894-46.6-22.058-4.893-29.434-22.058-46.6-29.435-4.894-46.6-22.057-4.894-29.435-22.058-46.6-29.434-4.893-46.6-22.057-4.894-29.435-22.058-46.6-29.435-4.894-46.6-22.058-4.894-29.436-22.058-46.6-29.435-4.894-46.6-22.058-4.894-29.435-22.058-46.6-29.435-4.894-46.6-22.058-4.894-29.435-22.059-46.6-29.435-4.895-46.6-22.059" transform="translate(1623.565 -2172.59)" fill="none" stroke="#dd0069" stroke-miterlimit="10" stroke-width="1"/>
      <path id="Path_24727" data-name="Path 24727" d="M-416.514,3218.125c-17.164-17.164-29.435-4.893-46.6-22.058s-4.894-29.434-22.057-46.6-29.435-4.894-46.6-22.058-4.893-29.434-22.057-46.6-29.435-4.894-46.6-22.058-4.893-29.435-22.058-46.6-29.434-4.893-46.6-22.057-4.893-29.434-22.057-46.6-29.435-4.894-46.6-22.058-4.893-29.434-22.058-46.6-29.435-4.895-46.6-22.059-4.894-29.434-22.058-46.6-29.435-4.894-46.6-22.058-4.894-29.435-22.058-46.6-29.435-4.893-46.6-22.058-4.894-29.435-22.058-46.6-29.435-4.893-46.6-22.057-4.894-29.435-22.058-46.6-29.435-4.894-46.6-22.058-4.894-29.435-22.059-46.6-29.436-4.894-46.6-22.059" transform="translate(1507.487 -2258.14)" fill="none" stroke="#dd0069" stroke-miterlimit="10" stroke-width="1"/>
      <path id="Path_24728" data-name="Path 24728" d="M-315.345,3318.461c-17.164-17.165-29.434-4.894-46.6-22.057s-4.894-29.435-22.057-46.6-29.435-4.893-46.6-22.058-4.894-29.434-22.058-46.6-29.435-4.894-46.6-22.058-4.893-29.435-22.058-46.6-29.434-4.894-46.6-22.057-4.893-29.434-22.057-46.6-29.435-4.893-46.6-22.057-4.893-29.434-22.058-46.6-29.434-4.894-46.6-22.058-4.893-29.435-22.057-46.6-29.435-4.894-46.6-22.057-4.894-29.435-22.058-46.6-29.435-4.894-46.6-22.059-4.893-29.435-22.058-46.6-29.434-4.892-46.6-22.057-4.894-29.435-22.058-46.6-29.435-4.893-46.6-22.057-4.894-29.435-22.059-46.6-29.435-4.894-46.6-22.059" transform="translate(1391.41 -2343.69)" fill="none" stroke="#dd0069" stroke-miterlimit="10" stroke-width="1"/>
      <path id="Path_24729" data-name="Path 24729" d="M-214.176,3418.8c-17.164-17.164-29.435-4.894-46.6-22.057s-4.893-29.435-22.057-46.6-29.435-4.893-46.6-22.057-4.893-29.435-22.057-46.6-29.435-4.894-46.6-22.058-4.894-29.435-22.058-46.6-29.434-4.893-46.6-22.056-4.893-29.435-22.057-46.6-29.435-4.893-46.6-22.057-4.893-29.435-22.057-46.6-29.435-4.893-46.6-22.057-4.893-29.434-22.058-46.6-29.435-4.893-46.6-22.058-4.894-29.434-22.058-46.6-29.435-4.894-46.6-22.058-4.894-29.435-22.058-46.6-29.435-4.893-46.6-22.057-4.894-29.435-22.058-46.6-29.435-4.893-46.6-22.057-4.894-29.436-22.059-46.6-29.436-4.894-46.6-22.059" transform="translate(1275.332 -2429.242)" fill="none" stroke="#dd0069" stroke-miterlimit="10" stroke-width="1"/>
      <path id="Path_24730" data-name="Path 24730" d="M-113.008,3519.135c-17.164-17.165-29.435-4.894-46.6-22.058s-4.893-29.435-22.058-46.6-29.434-4.893-46.6-22.057-4.894-29.435-22.058-46.6-29.435-4.894-46.6-22.057-4.894-29.435-22.058-46.6-29.434-4.893-46.6-22.057-4.893-29.434-22.057-46.6-29.435-4.894-46.6-22.058-4.893-29.435-22.058-46.6-29.435-4.894-46.6-22.057-4.893-29.435-22.057-46.6-29.435-4.894-46.6-22.058-4.894-29.435-22.058-46.6-29.435-4.893-46.6-22.058-4.894-29.435-22.058-46.6-29.434-4.893-46.6-22.057-4.894-29.435-22.058-46.6-29.435-4.894-46.6-22.058-4.894-29.435-22.059-46.6-29.435-4.895-46.6-22.06" transform="translate(1159.254 -2514.791)" fill="none" stroke="#dd0069" stroke-miterlimit="10" stroke-width="1"/>
      <path id="Path_24731" data-name="Path 24731" d="M-11.839,3619.47c-17.164-17.165-29.435-4.894-46.6-22.058s-4.894-29.434-22.058-46.6-29.434-4.894-46.6-22.057-4.894-29.435-22.058-46.6-29.435-4.894-46.6-22.059-4.894-29.434-22.058-46.6-29.434-4.893-46.6-22.057-4.893-29.434-22.057-46.6-29.435-4.893-46.6-22.058-4.893-29.434-22.058-46.6-29.435-4.893-46.6-22.057-4.894-29.435-22.058-46.6-29.435-4.894-46.6-22.058-4.894-29.434-22.058-46.6-29.435-4.893-46.6-22.057-4.894-29.435-22.058-46.6-29.434-4.893-46.6-22.057-4.894-29.435-22.058-46.6-29.435-4.893-46.6-22.057-4.894-29.436-22.059-46.6-29.435-4.895-46.6-22.059" transform="translate(1043.177 -2600.341)" fill="none" stroke="#dd0069" stroke-miterlimit="10" stroke-width="1"/>
      <path id="Path_24732" data-name="Path 24732" d="M89.329,3719.806c-17.164-17.163-29.435-4.893-46.6-22.057s-4.893-29.435-22.057-46.6-29.435-4.893-46.6-22.057-4.894-29.434-22.058-46.6-29.435-4.893-46.6-22.057-4.893-29.435-22.057-46.6-29.434-4.893-46.6-22.057-4.893-29.434-22.057-46.6-29.435-4.893-46.6-22.057-4.894-29.434-22.058-46.6-29.435-4.893-46.6-22.057-4.894-29.434-22.057-46.6-29.435-4.893-46.6-22.057-4.894-29.435-22.058-46.6-29.435-4.893-46.6-22.058-4.894-29.435-22.058-46.6-29.434-4.894-46.6-22.058-4.894-29.435-22.058-46.6-29.435-4.894-46.6-22.058-4.894-29.436-22.059-46.6-29.435-4.9-46.6-22.059" transform="translate(927.1 -2685.892)" fill="none" stroke="#dd0069" stroke-miterlimit="10" stroke-width="1"/>
      <path id="Path_24733" data-name="Path 24733" d="M190.5,3820.143c-17.164-17.164-29.435-4.894-46.6-22.058s-4.893-29.434-22.057-46.6-29.435-4.894-46.6-22.057-4.894-29.435-22.057-46.6-29.435-4.894-46.6-22.058-4.894-29.434-22.058-46.6-29.434-4.893-46.6-22.056-4.893-29.435-22.057-46.6-29.435-4.894-46.6-22.058-4.894-29.434-22.058-46.6-29.435-4.894-46.6-22.058-4.894-29.435-22.057-46.6-29.435-4.894-46.6-22.058-4.894-29.435-22.058-46.6-29.435-4.894-46.6-22.058-4.894-29.435-22.058-46.6-29.435-4.894-46.6-22.057-4.894-29.435-22.058-46.6-29.435-4.894-46.6-22.057-4.894-29.435-22.059-46.6-29.435-4.894-46.6-22.059" transform="translate(811.022 -2771.441)" fill="none" stroke="#dd0069" stroke-miterlimit="10" stroke-width="1"/>
      <path id="Path_24734" data-name="Path 24734" d="M291.668,3920.48c-17.164-17.165-29.435-4.895-46.6-22.058s-4.893-29.434-22.057-46.6-29.435-4.893-46.6-22.057-4.893-29.435-22.057-46.6-29.435-4.893-46.6-22.057-4.894-29.435-22.058-46.6-29.434-4.893-46.6-22.057-4.893-29.434-22.057-46.6-29.435-4.894-46.6-22.058-4.893-29.435-22.058-46.6-29.434-4.894-46.6-22.058-4.894-29.434-22.058-46.6-29.435-4.893-46.6-22.057-4.894-29.435-22.058-46.6-29.435-4.894-46.6-22.058-4.894-29.435-22.058-46.6-29.435-4.893-46.6-22.057-4.894-29.435-22.058-46.6-29.435-4.893-46.6-22.057-4.894-29.436-22.059-46.6-29.435-4.895-46.6-22.059" transform="translate(694.945 -2856.991)" fill="none" stroke="#dd0069" stroke-miterlimit="10" stroke-width="1"/>
      <path id="Path_24735" data-name="Path 24735" d="M392.837,4020.815c-17.164-17.164-29.435-4.894-46.6-22.057s-4.893-29.435-22.057-46.6-29.434-4.893-46.6-22.058-4.894-29.434-22.058-46.6-29.435-4.893-46.6-22.057-4.894-29.435-22.058-46.6-29.434-4.893-46.6-22.056-4.893-29.435-22.057-46.6-29.435-4.894-46.6-22.058-4.894-29.434-22.058-46.6-29.435-4.894-46.6-22.058-4.894-29.435-22.058-46.6-29.435-4.894-46.6-22.058-4.894-29.435-22.058-46.6-29.435-4.894-46.6-22.058-4.894-29.435-22.058-46.6-29.434-4.894-46.6-22.058-4.894-29.434-22.058-46.6-29.435-4.893-46.6-22.057-4.894-29.435-22.059-46.6-29.435-4.895-46.6-22.059" transform="translate(578.867 -2942.542)" fill="none" stroke="#dd0069" stroke-miterlimit="10" stroke-width="1"/>
      <path id="Path_24736" data-name="Path 24736" d="M494.005,4121.151c-17.164-17.164-29.435-4.893-46.6-22.056s-4.893-29.436-22.057-46.6-29.434-4.893-46.6-22.057-4.894-29.434-22.058-46.6-29.435-4.893-46.6-22.056-4.893-29.436-22.058-46.6-29.434-4.892-46.6-22.056-4.893-29.435-22.057-46.6-29.435-4.893-46.6-22.057-4.893-29.435-22.057-46.6-29.435-4.894-46.6-22.058-4.894-29.435-22.058-46.6-29.435-4.894-46.6-22.059-4.894-29.434-22.058-46.6-29.435-4.893-46.6-22.058-4.894-29.435-22.058-46.6-29.434-4.893-46.6-22.057-4.894-29.434-22.058-46.6-29.435-4.894-46.6-22.058-4.894-29.436-22.059-46.6-29.435-4.894-46.6-22.059" transform="translate(462.789 -3028.093)" fill="none" stroke="#dd0069" stroke-miterlimit="10" stroke-width="1"/>
      <path id="Path_24737" data-name="Path 24737" d="M595.174,4221.488c-17.164-17.164-29.435-4.894-46.6-22.058s-4.893-29.435-22.057-46.6-29.434-4.893-46.6-22.057-4.894-29.436-22.058-46.6-29.435-4.893-46.6-22.057-4.894-29.436-22.058-46.6-29.434-4.894-46.6-22.057-4.893-29.434-22.057-46.6-29.435-4.894-46.6-22.058-4.894-29.435-22.058-46.6-29.435-4.893-46.6-22.057-4.894-29.435-22.058-46.6-29.435-4.894-46.6-22.058-4.894-29.435-22.058-46.6-29.435-4.893-46.6-22.058-4.894-29.434-22.058-46.6-29.434-4.894-46.6-22.058-4.894-29.434-22.058-46.6-29.435-4.893-46.6-22.058-4.894-29.435-22.059-46.6-29.435-4.895-46.6-22.059" transform="translate(346.711 -3113.643)" fill="none" stroke="#dd0069" stroke-miterlimit="10" stroke-width="1"/>
      <path id="Path_24738" data-name="Path 24738" d="M696.342,4321.824c-17.164-17.165-29.435-4.893-46.6-22.058s-4.894-29.434-22.057-46.6-29.435-4.894-46.6-22.058-4.894-29.434-22.058-46.6-29.435-4.893-46.6-22.058-4.894-29.434-22.058-46.6-29.434-4.893-46.6-22.056-4.893-29.434-22.057-46.6-29.435-4.893-46.6-22.057-4.894-29.435-22.058-46.6-29.435-4.895-46.6-22.058-4.894-29.435-22.058-46.6-29.435-4.894-46.6-22.058-4.894-29.436-22.058-46.6-29.435-4.894-46.6-22.058-4.894-29.435-22.058-46.6-29.434-4.893-46.6-22.057-4.894-29.434-22.058-46.6-29.435-4.894-46.6-22.058-4.894-29.435-22.059-46.6-29.435-4.894-46.6-22.059" transform="translate(230.635 -3199.192)" fill="none" stroke="#dd0069" stroke-miterlimit="10" stroke-width="1"/>
      <path id="Path_24739" data-name="Path 24739" d="M797.511,4422.159c-17.164-17.164-29.435-4.894-46.6-22.058s-4.893-29.434-22.057-46.6-29.435-4.894-46.6-22.059-4.893-29.434-22.057-46.6-29.435-4.894-46.6-22.058-4.894-29.435-22.057-46.6-29.434-4.892-46.6-22.056-4.893-29.435-22.057-46.6-29.435-4.893-46.6-22.057-4.894-29.436-22.058-46.6-29.435-4.893-46.6-22.057-4.894-29.435-22.058-46.6-29.435-4.893-46.6-22.056-4.894-29.435-22.058-46.6-29.435-4.893-46.6-22.058-4.894-29.435-22.058-46.6-29.435-4.894-46.6-22.057-4.894-29.435-22.058-46.6-29.435-4.894-46.6-22.058-4.894-29.436-22.059-46.6-29.435-4.894-46.6-22.059" transform="translate(114.557 -3284.742)" fill="none" stroke="#dd0069" stroke-miterlimit="10" stroke-width="1"/>
      <path id="Path_24740" data-name="Path 24740" d="M898.681,4522.5c-17.164-17.165-29.435-4.893-46.6-22.059s-4.893-29.434-22.057-46.6-29.435-4.893-46.6-22.057-4.893-29.436-22.057-46.6-29.435-4.894-46.6-22.057-4.894-29.436-22.058-46.6-29.434-4.893-46.6-22.057-4.893-29.435-22.057-46.6-29.435-4.895-46.6-22.059-4.893-29.434-22.058-46.6-29.434-4.893-46.6-22.058-4.893-29.435-22.058-46.6-29.435-4.893-46.6-22.058-4.894-29.434-22.058-46.6-29.435-4.894-46.6-22.058-4.894-29.435-22.058-46.6-29.435-4.893-46.6-22.058-4.894-29.435-22.058-46.6-29.435-4.894-46.6-22.057-4.894-29.435-22.059-46.6-29.435-4.894-46.6-22.06" transform="translate(-1.521 -3370.292)" fill="none" stroke="#dd0069" stroke-miterlimit="10" stroke-width="1"/>
      <path id="Path_24741" data-name="Path 24741" d="M999.849,4622.832c-17.164-17.164-29.435-4.894-46.6-22.057s-4.893-29.436-22.057-46.6-29.435-4.894-46.6-22.058-4.893-29.434-22.057-46.6-29.435-4.895-46.6-22.059-4.893-29.435-22.058-46.6-29.434-4.894-46.6-22.057-4.893-29.435-22.057-46.6-29.435-4.894-46.6-22.058-4.894-29.435-22.058-46.6-29.435-4.894-46.6-22.058-4.893-29.435-22.057-46.6-29.435-4.894-46.6-22.058-4.894-29.434-22.058-46.6-29.435-4.895-46.6-22.058-4.894-29.436-22.058-46.6-29.435-4.892-46.6-22.058-4.894-29.435-22.058-46.6-29.435-4.895-46.6-22.058-4.895-29.435-22.059-46.6-29.435-4.895-46.6-22.059" transform="translate(-117.598 -3455.843)" fill="none" stroke="#dd0069" stroke-miterlimit="10" stroke-width="1"/>
      <path id="Path_24742" data-name="Path 24742" d="M1101.018,4723.168c-17.164-17.163-29.435-4.892-46.6-22.057s-4.893-29.435-22.057-46.6-29.434-4.893-46.6-22.057-4.893-29.436-22.057-46.6-29.435-4.893-46.6-22.057-4.894-29.435-22.058-46.6-29.434-4.894-46.6-22.057-4.893-29.434-22.057-46.6-29.435-4.893-46.6-22.057-4.894-29.434-22.058-46.6-29.435-4.894-46.6-22.058-4.894-29.434-22.058-46.6-29.435-4.893-46.6-22.058-4.894-29.435-22.058-46.6-29.435-4.894-46.6-22.059-4.894-29.434-22.058-46.6-29.434-4.894-46.6-22.058-4.894-29.435-22.058-46.6-29.435-4.894-46.6-22.058-4.894-29.435-22.059-46.6-29.435-4.894-46.6-22.06" transform="translate(-233.676 -3541.393)" fill="none" stroke="#dd0069" stroke-miterlimit="10" stroke-width="1"/>
      <path id="Path_24743" data-name="Path 24743" d="M1202.187,4823.505c-17.164-17.165-29.435-4.894-46.6-22.059s-4.894-29.434-22.057-46.6-29.435-4.894-46.6-22.059-4.893-29.434-22.057-46.6-29.435-4.894-46.6-22.057-4.893-29.436-22.057-46.6-29.434-4.892-46.6-22.057-4.893-29.434-22.057-46.6-29.435-4.894-46.6-22.058-4.894-29.435-22.058-46.6-29.435-4.893-46.6-22.057-4.894-29.435-22.058-46.6-29.435-4.893-46.6-22.058-4.894-29.434-22.058-46.6-29.435-4.893-46.6-22.059-4.894-29.434-22.058-46.6-29.435-4.894-46.6-22.058-4.894-29.436-22.058-46.6-29.434-4.893-46.6-22.058-4.894-29.435-22.059-46.6-29.436-4.893-46.6-22.058" transform="translate(-349.754 -3626.943)" fill="none" stroke="#dd0069" stroke-miterlimit="10" stroke-width="1"/>
      <path id="Path_24744" data-name="Path 24744" d="M1303.356,4923.84c-17.164-17.164-29.435-4.894-46.6-22.058s-4.893-29.435-22.057-46.6-29.434-4.894-46.6-22.058-4.893-29.435-22.057-46.6-29.434-4.894-46.6-22.058-4.894-29.436-22.058-46.6-29.434-4.892-46.6-22.057-4.893-29.435-22.057-46.6-29.435-4.894-46.6-22.058-4.894-29.435-22.058-46.6-29.435-4.894-46.6-22.058-4.893-29.435-22.058-46.6-29.435-4.894-46.6-22.057-4.894-29.436-22.058-46.6-29.435-4.893-46.6-22.058-4.894-29.435-22.058-46.6-29.434-4.894-46.6-22.058-4.894-29.434-22.058-46.6-29.435-4.893-46.6-22.058-4.894-29.435-22.059-46.6-29.435-4.895-46.6-22.058" transform="translate(-465.831 -3712.494)" fill="none" stroke="#dd0069" stroke-miterlimit="10" stroke-width="1"/>
      <path id="Path_24745" data-name="Path 24745" d="M1404.524,5024.176c-17.164-17.164-29.435-4.893-46.6-22.057s-4.893-29.434-22.057-46.6-29.435-4.893-46.6-22.057-4.893-29.434-22.058-46.6-29.435-4.894-46.6-22.058-4.894-29.435-22.058-46.6-29.434-4.894-46.6-22.057-4.893-29.435-22.057-46.6-29.435-4.893-46.6-22.056-4.893-29.435-22.058-46.6-29.435-4.9-46.6-22.058-4.893-29.435-22.057-46.6-29.435-4.894-46.6-22.059-4.894-29.434-22.058-46.6-29.435-4.9-46.6-22.058-4.894-29.436-22.058-46.6-29.434-4.893-46.6-22.058-4.894-29.435-22.058-46.6-29.435-4.895-46.6-22.058-4.894-29.437-22.059-46.6-29.435-4.895-46.6-22.06" transform="translate(-581.908 -3798.043)" fill="none" stroke="#dd0069" stroke-miterlimit="10" stroke-width="1"/>
      <path id="Path_24746" data-name="Path 24746" d="M1505.693,5124.512c-17.164-17.164-29.434-4.893-46.6-22.057s-4.894-29.435-22.057-46.6-29.435-4.894-46.6-22.058-4.893-29.436-22.058-46.6-29.434-4.893-46.6-22.058-4.894-29.434-22.058-46.6-29.434-4.894-46.6-22.057-4.893-29.435-22.057-46.6-29.435-4.894-46.6-22.058-4.894-29.436-22.058-46.6-29.435-4.893-46.6-22.057-4.894-29.436-22.058-46.6-29.435-4.894-46.6-22.057-4.894-29.436-22.058-46.6-29.435-4.895-46.6-22.059-4.894-29.435-22.058-46.6-29.435-4.893-46.6-22.057-4.894-29.435-22.058-46.6-29.435-4.893-46.6-22.057-4.895-29.437-22.06-46.6-29.435-4.9-46.6-22.059" transform="translate(-697.986 -3883.594)" fill="none" stroke="#dd0069" stroke-miterlimit="10" stroke-width="1"/>
      <path id="Path_24747" data-name="Path 24747" d="M1606.863,5224.85c-17.164-17.164-29.435-4.894-46.6-22.057s-4.893-29.436-22.057-46.6-29.435-4.894-46.6-22.057-4.893-29.436-22.058-46.6-29.435-4.894-46.6-22.058-4.894-29.435-22.058-46.6-29.434-4.893-46.6-22.058-4.894-29.433-22.057-46.6-29.435-4.895-46.6-22.057-4.893-29.434-22.057-46.6-29.435-4.894-46.6-22.057-4.893-29.435-22.057-46.6-29.435-4.894-46.6-22.059-4.894-29.435-22.058-46.6-29.435-4.893-46.6-22.058-4.893-29.435-22.058-46.6-29.435-4.894-46.6-22.058-4.894-29.435-22.058-46.6-29.435-4.894-46.6-22.057-4.895-29.437-22.059-46.6-29.435-4.894-46.6-22.06" transform="translate(-814.064 -3969.144)" fill="none" stroke="#dd0069" stroke-miterlimit="10" stroke-width="1"/>
      <path id="Path_24748" data-name="Path 24748" d="M1708.031,5325.185c-17.164-17.164-29.435-4.894-46.6-22.058s-4.893-29.435-22.057-46.6-29.434-4.893-46.6-22.058-4.894-29.435-22.057-46.6-29.435-4.894-46.6-22.057-4.893-29.436-22.057-46.6-29.434-4.892-46.6-22.057-4.893-29.434-22.057-46.6-29.435-4.894-46.6-22.058-4.894-29.435-22.058-46.6-29.434-4.894-46.6-22.058-4.893-29.434-22.058-46.6-29.435-4.894-46.6-22.059-4.894-29.434-22.058-46.6-29.435-4.895-46.6-22.059-4.893-29.435-22.058-46.6-29.434-4.893-46.6-22.057-4.894-29.437-22.058-46.6-29.434-4.894-46.6-22.058-4.895-29.436-22.059-46.6-29.436-4.9-46.6-22.06" transform="translate(-930.141 -4054.694)" fill="none" stroke="#dd0069" stroke-miterlimit="10" stroke-width="1"/>
      <path id="Path_24749" data-name="Path 24749" d="M1809.2,5425.521c-17.164-17.164-29.435-4.894-46.6-22.058s-4.893-29.435-22.057-46.6-29.434-4.893-46.6-22.058-4.893-29.435-22.058-46.6-29.435-4.893-46.6-22.058-4.894-29.435-22.058-46.6-29.434-4.893-46.6-22.056-4.893-29.435-22.057-46.6-29.435-4.893-46.6-22.059-4.894-29.434-22.057-46.6-29.435-4.894-46.6-22.059-4.893-29.434-22.058-46.6-29.435-4.894-46.6-22.059-4.894-29.434-22.058-46.6-29.435-4.894-46.6-22.059-4.894-29.435-22.058-46.6-29.434-4.892-46.6-22.057-4.894-29.435-22.058-46.6-29.435-4.894-46.6-22.059-4.894-29.436-22.059-46.6-29.436-4.9-46.6-22.059" transform="translate(-1046.219 -4140.245)" fill="none" stroke="#dd0069" stroke-miterlimit="10" stroke-width="1"/>
      <path id="Path_24750" data-name="Path 24750" d="M1910.37,5525.857c-17.164-17.164-29.435-4.893-46.6-22.057s-4.893-29.435-22.058-46.6-29.434-4.894-46.6-22.057-4.894-29.435-22.058-46.6-29.435-4.892-46.6-22.057-4.893-29.435-22.058-46.6-29.434-4.894-46.6-22.057-4.893-29.435-22.057-46.6-29.435-4.893-46.6-22.058-4.894-29.434-22.058-46.6-29.435-4.894-46.6-22.057-4.893-29.435-22.058-46.6-29.435-4.894-46.6-22.059-4.894-29.434-22.058-46.6-29.435-4.894-46.6-22.058-4.894-29.436-22.058-46.6-29.434-4.894-46.6-22.057-4.893-29.435-22.058-46.6-29.435-4.893-46.6-22.057-4.895-29.436-22.059-46.6-29.435-4.895-46.6-22.06" transform="translate(-1162.297 -4225.793)" fill="none" stroke="#dd0069" stroke-miterlimit="10" stroke-width="1"/>
      <path id="Path_24751" data-name="Path 24751" d="M2011.537,5626.193c-17.164-17.164-29.435-4.894-46.6-22.058s-4.893-29.435-22.057-46.6-29.434-4.893-46.6-22.058-4.893-29.434-22.057-46.6-29.434-4.894-46.6-22.057-4.893-29.435-22.057-46.6-29.434-4.893-46.6-22.058-4.893-29.434-22.057-46.6-29.435-4.894-46.6-22.058-4.894-29.434-22.057-46.6-29.435-4.894-46.6-22.057-4.894-29.435-22.058-46.6-29.434-4.894-46.6-22.059-4.894-29.435-22.058-46.6-29.435-4.893-46.6-22.057-4.894-29.435-22.058-46.6-29.435-4.894-46.6-22.058-4.894-29.436-22.058-46.6-29.435-4.894-46.6-22.058-4.894-29.436-22.059-46.6-29.435-4.894-46.6-22.06" transform="translate(-1278.373 -4311.343)" fill="none" stroke="#dd0069" stroke-miterlimit="10" stroke-width="1"/>
    </g>
  </g>
</svg>
