<svg xmlns="http://www.w3.org/2000/svg" xmlns:xlink="http://www.w3.org/1999/xlink" width="1798" height="1138" viewBox="0 0 1798 1138">
  <defs>
    <clipPath id="clip-path">
      <rect id="Rectangle_4091" data-name="Rectangle 4091" width="1798" height="1138" transform="translate(5355 6526)" fill="#fff"/>
    </clipPath>
  </defs>
  <g id="Mask_Group_25" data-name="Mask Group 25" transform="translate(-5355 -6526)" clip-path="url(#clip-path)">
    <g id="Group_6117" data-name="Group 6117" transform="translate(6907.855 3253.466)" opacity="0.31">
      <g id="Group_6116" data-name="Group 6116" transform="translate(-2268.476 2255.42)">
        <path id="Path_24710" data-name="Path 24710" d="M-1084.764,2528.83c-41.784-41.784-71.655-11.913-113.438-53.7s-11.913-71.654-53.7-113.437-71.653-11.912-113.438-53.695-11.912-71.655-53.7-113.438-71.654-11.913-113.438-53.7-11.913-71.654-53.7-113.438-71.653-11.911-113.437-53.694-11.912-71.654-53.7-113.436-71.654-11.913-113.438-53.7-11.913-71.655-53.7-113.439-71.654-11.912-113.437-53.7-11.914-71.654-53.7-113.438-71.656-11.913-113.439-53.7-11.913-71.655-53.7-113.439-71.654-11.912-113.437-53.7-11.914-71.655-53.7-113.439-71.653-11.912-113.437-53.7-11.913-71.655-53.7-113.438-71.654-11.913-113.438-53.7-11.915-71.656-53.7-113.442-71.656-11.914-113.442-53.7" transform="translate(4357.564 -803.787)" fill="none" stroke="#dd0069" stroke-miterlimit="10" stroke-width="1"/>
        <path id="Path_24711" data-name="Path 24711" d="M-983.6,2629.166c-41.784-41.784-71.654-11.912-113.437-53.7s-11.914-71.654-53.7-113.437-71.653-11.913-113.438-53.7-11.913-71.653-53.695-113.437-71.654-11.913-113.439-53.7-11.914-71.655-53.7-113.438-71.653-11.912-113.436-53.694-11.912-71.655-53.695-113.437-71.653-11.913-113.439-53.7-11.912-71.655-53.7-113.438-71.654-11.912-113.436-53.7-11.915-71.654-53.7-113.437-71.655-11.913-113.439-53.7-11.913-71.654-53.7-113.438-71.653-11.914-113.437-53.7-11.913-71.655-53.7-113.439-71.654-11.912-113.437-53.695-11.913-71.655-53.7-113.439-71.654-11.913-113.438-53.7-11.915-71.657-53.7-113.442-71.655-11.914-113.442-53.7" transform="translate(4220.104 -868.129)" fill="none" stroke="#dd0069" stroke-miterlimit="10" stroke-width="1"/>
        <path id="Path_24712" data-name="Path 24712" d="M-882.427,2729.5c-41.783-41.783-71.654-11.913-113.437-53.7s-11.913-71.654-53.7-113.437-71.654-11.913-113.437-53.7-11.914-71.654-53.7-113.437-71.655-11.913-113.438-53.7-11.914-71.653-53.7-113.437-71.655-11.912-113.437-53.694-11.913-71.653-53.695-113.437-71.654-11.913-113.437-53.7-11.913-71.655-53.7-113.438-71.654-11.913-113.438-53.7-11.912-71.654-53.695-113.437-71.654-11.913-113.439-53.7-11.913-71.655-53.7-113.438-71.656-11.913-113.438-53.7-11.914-71.654-53.7-113.438-71.654-11.913-113.437-53.7-11.913-71.655-53.7-113.438-71.656-11.913-113.439-53.7-11.914-71.656-53.7-113.441-71.655-11.915-113.442-53.7" transform="translate(4082.641 -932.47)" fill="none" stroke="#dd0069" stroke-miterlimit="10" stroke-width="1"/>
        <path id="Path_24713" data-name="Path 24713" d="M-781.259,2829.838c-41.783-41.783-71.655-11.913-113.438-53.7s-11.912-71.654-53.7-113.437-71.653-11.913-113.437-53.7-11.914-71.655-53.7-113.438-71.654-11.913-113.438-53.7-11.913-71.654-53.7-113.438-71.654-11.912-113.437-53.694-11.912-71.654-53.694-113.437-71.654-11.913-113.438-53.7-11.913-71.655-53.7-113.438-71.654-11.912-113.437-53.7-11.912-71.655-53.7-113.438-71.654-11.913-113.438-53.7-11.913-71.655-53.7-113.439-71.656-11.912-113.439-53.7-11.914-71.654-53.7-113.439-71.655-11.912-113.438-53.7-11.913-71.655-53.7-113.439-71.654-11.912-113.438-53.7-11.916-71.656-53.7-113.442-71.656-11.914-113.441-53.7" transform="translate(3945.181 -996.813)" fill="none" stroke="#dd0069" stroke-miterlimit="10" stroke-width="1"/>
        <path id="Path_24714" data-name="Path 24714" d="M-680.09,2930.174c-41.783-41.783-71.655-11.912-113.439-53.7s-11.912-71.655-53.7-113.438-71.653-11.913-113.436-53.7-11.912-71.654-53.7-113.438-71.654-11.912-113.438-53.7-11.912-71.654-53.7-113.438-71.653-11.911-113.435-53.694-11.914-71.654-53.7-113.436-71.653-11.913-113.436-53.7-11.913-71.654-53.7-113.437-71.653-11.913-113.436-53.7-11.914-71.654-53.7-113.438-71.655-11.912-113.438-53.7-11.913-71.655-53.7-113.439-71.655-11.913-113.439-53.7-11.913-71.655-53.7-113.439-71.654-11.912-113.437-53.7-11.913-71.654-53.7-113.439-71.654-11.912-113.439-53.695-11.914-71.657-53.7-113.442-71.655-11.914-113.44-53.7" transform="translate(3807.719 -1061.154)" fill="none" stroke="#dd0069" stroke-miterlimit="10" stroke-width="1"/>
        <path id="Path_24715" data-name="Path 24715" d="M-578.921,3030.51c-41.783-41.783-71.654-11.913-113.437-53.7s-11.914-71.655-53.7-113.438-71.653-11.912-113.436-53.7-11.912-71.655-53.7-113.437-71.655-11.914-113.438-53.7-11.914-71.654-53.7-113.438-71.653-11.912-113.435-53.7-11.913-71.653-53.7-113.435-71.655-11.913-113.438-53.7-11.913-71.655-53.7-113.438-71.654-11.912-113.436-53.7-11.914-71.654-53.7-113.437-71.654-11.913-113.437-53.7-11.912-71.655-53.7-113.439-71.656-11.913-113.438-53.7-11.913-71.655-53.7-113.439-71.654-11.913-113.438-53.7-11.913-71.654-53.7-113.438-71.655-11.913-113.438-53.7-11.915-71.656-53.7-113.441-71.656-11.914-113.441-53.7" transform="translate(3670.256 -1125.496)" fill="none" stroke="#dd0069" stroke-miterlimit="10" stroke-width="1"/>
        <path id="Path_24716" data-name="Path 24716" d="M-477.752,3130.846c-41.784-41.784-71.655-11.913-113.438-53.7s-11.913-71.656-53.7-113.438-71.655-11.912-113.437-53.7-11.914-71.653-53.7-113.436-71.654-11.914-113.439-53.7-11.911-71.654-53.7-113.437-71.654-11.912-113.436-53.694-11.912-71.654-53.7-113.437-71.655-11.912-113.438-53.7-11.913-71.654-53.7-113.437-71.655-11.912-113.437-53.7-11.913-71.654-53.7-113.437-71.656-11.913-113.439-53.7-11.913-71.654-53.7-113.437-71.654-11.914-113.437-53.7-11.913-71.655-53.7-113.438-71.653-11.913-113.437-53.7-11.914-71.654-53.7-113.438-71.655-11.913-113.439-53.7-11.914-71.656-53.7-113.442-71.656-11.914-113.442-53.7" transform="translate(3532.793 -1189.838)" fill="none" stroke="#dd0069" stroke-miterlimit="10" stroke-width="1"/>
        <path id="Path_24717" data-name="Path 24717" d="M-376.583,3231.181c-41.784-41.783-71.656-11.911-113.439-53.7s-11.912-71.653-53.694-113.437-71.655-11.911-113.438-53.7-11.914-71.654-53.7-113.438-71.654-11.911-113.437-53.7-11.912-71.655-53.7-113.438-71.653-11.912-113.436-53.695-11.912-71.654-53.695-113.436-71.654-11.913-113.437-53.7-11.913-71.655-53.7-113.437-71.655-11.913-113.438-53.7-11.913-71.655-53.7-113.437-71.654-11.913-113.437-53.7-11.912-71.655-53.7-113.438-71.655-11.912-113.439-53.7-11.913-71.655-53.7-113.438-71.655-11.912-113.437-53.7-11.913-71.655-53.7-113.438-71.654-11.913-113.437-53.7-11.914-71.656-53.7-113.441-71.657-11.914-113.442-53.7" transform="translate(3395.331 -1254.18)" fill="none" stroke="#dd0069" stroke-miterlimit="10" stroke-width="1"/>
        <path id="Path_24718" data-name="Path 24718" d="M-275.414,3331.52c-41.783-41.784-71.654-11.912-113.437-53.7s-11.913-71.655-53.7-113.438-71.654-11.913-113.438-53.7-11.913-71.655-53.7-113.438-71.655-11.912-113.439-53.7-11.914-71.656-53.7-113.438-71.653-11.913-113.436-53.7-11.912-71.653-53.694-113.436-71.655-11.912-113.438-53.695-11.913-71.656-53.7-113.439-71.654-11.912-113.438-53.7-11.912-71.654-53.7-113.437-71.654-11.914-113.438-53.7-11.914-71.654-53.7-113.438-71.655-11.913-113.439-53.7-11.913-71.655-53.7-113.439-71.654-11.912-113.437-53.7-11.914-71.655-53.7-113.438-71.654-11.913-113.437-53.7-11.914-71.655-53.7-113.441-71.656-11.915-113.442-53.7" transform="translate(3257.87 -1318.521)" fill="none" stroke="#dd0069" stroke-miterlimit="10" stroke-width="1"/>
        <path id="Path_24719" data-name="Path 24719" d="M-174.245,3431.855c-41.784-41.783-71.655-11.914-113.439-53.7s-11.912-71.653-53.7-113.437-71.655-11.911-113.438-53.7-11.913-71.656-53.7-113.438-71.654-11.913-113.439-53.7-11.912-71.655-53.7-113.438-71.653-11.912-113.436-53.7-11.911-71.652-53.695-113.434-71.655-11.915-113.438-53.7-11.912-71.654-53.7-113.436-71.654-11.913-113.437-53.7-11.913-71.653-53.7-113.436-71.654-11.913-113.438-53.7-11.913-71.654-53.7-113.438-71.655-11.913-113.438-53.7-11.913-71.656-53.7-113.439-71.654-11.912-113.437-53.7-11.912-71.653-53.7-113.438-71.655-11.912-113.438-53.7-11.914-71.656-53.7-113.442-71.657-11.914-113.442-53.7" transform="translate(3120.407 -1382.863)" fill="none" stroke="#dd0069" stroke-miterlimit="10" stroke-width="1"/>
        <path id="Path_24720" data-name="Path 24720" d="M-73.076,3532.19c-41.784-41.782-71.655-11.911-113.438-53.694s-11.912-71.654-53.7-113.437-71.655-11.912-113.437-53.7-11.913-71.654-53.7-113.437-71.654-11.912-113.438-53.7-11.913-71.655-53.7-113.439-71.653-11.911-113.436-53.693-11.912-71.654-53.7-113.437-71.654-11.912-113.438-53.7-11.912-71.654-53.7-113.437-71.655-11.914-113.439-53.7-11.912-71.654-53.695-113.438-71.655-11.913-113.438-53.7-11.913-71.654-53.7-113.438-71.656-11.914-113.438-53.7-11.914-71.655-53.7-113.439-71.654-11.913-113.437-53.7-11.913-71.655-53.7-113.438-71.655-11.913-113.438-53.7-11.914-71.657-53.7-113.441-71.656-11.915-113.441-53.7" transform="translate(2982.946 -1447.205)" fill="none" stroke="#dd0069" stroke-miterlimit="10" stroke-width="1"/>
        <path id="Path_24721" data-name="Path 24721" d="M28.092,3632.526c-41.783-41.783-71.654-11.912-113.437-53.7s-11.913-71.653-53.7-113.437-71.654-11.913-113.437-53.7-11.912-71.654-53.695-113.437-71.655-11.912-113.439-53.7-11.912-71.654-53.7-113.438-71.654-11.911-113.436-53.694-11.913-71.654-53.7-113.436-71.654-11.913-113.439-53.7-11.912-71.654-53.7-113.438-71.654-11.912-113.438-53.7-11.912-71.653-53.7-113.437-71.654-11.913-113.438-53.7-11.913-71.654-53.7-113.439-71.655-11.912-113.439-53.7-11.913-71.654-53.7-113.437-71.654-11.914-113.438-53.7-11.912-71.656-53.7-113.438-71.655-11.914-113.438-53.7-11.914-71.657-53.7-113.442-71.656-11.914-113.442-53.7" transform="translate(2845.484 -1511.547)" fill="none" stroke="#dd0069" stroke-miterlimit="10" stroke-width="1"/>
        <path id="Path_24722" data-name="Path 24722" d="M129.262,3732.864c-41.784-41.784-71.654-11.914-113.438-53.7s-11.913-71.654-53.7-113.439-71.654-11.913-113.437-53.695-11.912-71.653-53.7-113.437-71.655-11.913-113.438-53.7-11.913-71.655-53.7-113.437-71.653-11.912-113.436-53.694-11.912-71.655-53.694-113.437-71.655-11.913-113.439-53.7-11.913-71.656-53.7-113.438-71.654-11.912-113.437-53.7-11.913-71.654-53.7-113.439-71.655-11.913-113.438-53.7-11.913-71.654-53.7-113.439-71.654-11.914-113.438-53.7-11.913-71.656-53.7-113.44-71.655-11.912-113.437-53.7-11.913-71.654-53.7-113.438-71.654-11.913-113.437-53.7-11.914-71.657-53.7-113.443-71.656-11.914-113.442-53.7" transform="translate(2708.022 -1575.888)" fill="none" stroke="#dd0069" stroke-miterlimit="10" stroke-width="1"/>
        <path id="Path_24723" data-name="Path 24723" d="M230.43,3833.2c-41.784-41.783-71.654-11.912-113.437-53.7s-11.913-71.653-53.7-113.437-71.654-11.911-113.437-53.695-11.913-71.656-53.7-113.439-71.655-11.912-113.439-53.7-11.912-71.653-53.7-113.438-71.654-11.91-113.436-53.695-11.912-71.654-53.7-113.433-71.655-11.915-113.438-53.7-11.913-71.655-53.7-113.44-71.653-11.911-113.438-53.694-11.912-71.655-53.7-113.437-71.654-11.913-113.437-53.7-11.914-71.655-53.7-113.438-71.655-11.912-113.439-53.7-11.914-71.653-53.7-113.437-71.653-11.913-113.437-53.695-11.913-71.656-53.7-113.44-71.655-11.912-113.437-53.7-11.915-71.655-53.7-113.441-71.657-11.914-113.442-53.7" transform="translate(2570.56 -1640.23)" fill="none" stroke="#dd0069" stroke-miterlimit="10" stroke-width="1"/>
        <path id="Path_24724" data-name="Path 24724" d="M331.6,3933.538c-41.784-41.785-71.654-11.915-113.438-53.7s-11.913-71.653-53.7-113.437-71.654-11.912-113.438-53.7-11.912-71.654-53.7-113.438-71.654-11.912-113.439-53.7-11.912-71.653-53.7-113.436-71.653-11.912-113.436-53.7-11.912-71.653-53.7-113.437-71.654-11.911-113.438-53.693-11.913-71.654-53.7-113.439-71.654-11.912-113.438-53.694-11.912-71.654-53.7-113.438-71.655-11.914-113.439-53.7-11.913-71.655-53.7-113.438-71.654-11.914-113.439-53.7-11.913-71.654-53.7-113.439-71.654-11.912-113.438-53.7-11.912-71.655-53.7-113.438-71.654-11.912-113.436-53.694-11.915-71.658-53.7-113.444-71.656-11.914-113.441-53.7" transform="translate(2433.098 -1704.572)" fill="none" stroke="#dd0069" stroke-miterlimit="10" stroke-width="1"/>
        <path id="Path_24725" data-name="Path 24725" d="M432.768,4033.871c-41.784-41.781-71.655-11.911-113.438-53.695s-11.913-71.653-53.7-113.436-71.654-11.913-113.437-53.7-11.913-71.654-53.7-113.437-71.654-11.914-113.438-53.7-11.913-71.654-53.7-113.438-71.654-11.911-113.437-53.694-11.911-71.652-53.694-113.436-71.654-11.913-113.439-53.7-11.913-71.654-53.7-113.438-71.654-11.913-113.438-53.7-11.912-71.653-53.7-113.437-71.655-11.913-113.439-53.7-11.912-71.655-53.7-113.438-71.655-11.913-113.439-53.7-11.913-71.655-53.7-113.438-71.654-11.913-113.437-53.7-11.912-71.656-53.7-113.439-71.653-11.913-113.438-53.7-11.914-71.656-53.7-113.442-71.656-11.915-113.441-53.7" transform="translate(2295.635 -1768.914)" fill="none" stroke="#dd0069" stroke-miterlimit="10" stroke-width="1"/>
        <path id="Path_24726" data-name="Path 24726" d="M533.936,4134.208c-41.783-41.784-71.654-11.912-113.438-53.694s-11.912-71.656-53.7-113.439-71.655-11.912-113.438-53.7-11.912-71.653-53.7-113.436-71.654-11.912-113.438-53.7-11.913-71.656-53.7-113.439S-39.118,3620.9-80.9,3579.112s-11.912-71.654-53.694-113.436-71.654-11.913-113.438-53.7-11.912-71.653-53.7-113.437-71.654-11.913-113.438-53.7-11.913-71.655-53.7-113.439-71.654-11.911-113.438-53.695-11.913-71.654-53.7-113.439-71.654-11.914-113.439-53.7-11.913-71.657-53.7-113.439-71.654-11.913-113.438-53.7-11.913-71.654-53.7-113.438-71.654-11.913-113.438-53.7-11.914-71.655-53.7-113.441-71.655-11.915-113.441-53.7" transform="translate(2158.175 -1833.256)" fill="none" stroke="#dd0069" stroke-miterlimit="10" stroke-width="1"/>
        <path id="Path_24727" data-name="Path 24727" d="M635.105,4234.543c-41.784-41.783-71.655-11.912-113.438-53.7s-11.913-71.653-53.7-113.436-71.654-11.913-113.438-53.7-11.912-71.653-53.7-113.437-71.655-11.914-113.439-53.7-11.912-71.653-53.7-113.438-71.654-11.911-113.436-53.693-11.912-71.652-53.7-113.437-71.655-11.914-113.438-53.7-11.912-71.654-53.7-113.436-71.654-11.915-113.437-53.7-11.913-71.653-53.7-113.436-71.655-11.914-113.438-53.7-11.913-71.655-53.7-113.438-71.655-11.912-113.438-53.7-11.913-71.655-53.7-113.439-71.654-11.911-113.437-53.7-11.914-71.655-53.7-113.438-71.654-11.914-113.438-53.7-11.914-71.656-53.7-113.441-71.657-11.915-113.442-53.7" transform="translate(2020.712 -1897.598)" fill="none" stroke="#dd0069" stroke-miterlimit="10" stroke-width="1"/>
        <path id="Path_24728" data-name="Path 24728" d="M736.275,4334.88c-41.783-41.785-71.654-11.913-113.438-53.695s-11.913-71.655-53.7-113.439-71.655-11.912-113.437-53.7-11.913-71.653-53.7-113.436-71.655-11.914-113.438-53.7-11.912-71.654-53.7-113.438-71.654-11.913-113.436-53.695-11.912-71.654-53.695-113.437-71.655-11.912-113.438-53.7-11.913-71.653-53.7-113.438-71.654-11.913-113.438-53.7-11.912-71.655-53.7-113.438-71.655-11.913-113.438-53.695-11.913-71.654-53.7-113.438-71.655-11.915-113.439-53.7-11.912-71.655-53.7-113.439-71.654-11.91-113.437-53.694-11.913-71.655-53.7-113.439-71.655-11.912-113.438-53.7-11.915-71.656-53.7-113.442-71.656-11.915-113.442-53.7" transform="translate(1883.25 -1961.939)" fill="none" stroke="#dd0069" stroke-miterlimit="10" stroke-width="1"/>
        <path id="Path_24729" data-name="Path 24729" d="M837.443,4435.217c-41.784-41.784-71.654-11.914-113.438-53.695s-11.912-71.655-53.7-113.438-71.654-11.912-113.437-53.7-11.912-71.655-53.7-113.437-71.655-11.914-113.438-53.7-11.913-71.654-53.7-113.438-71.654-11.911-113.437-53.693-11.912-71.654-53.694-113.438-71.655-11.912-113.439-53.7-11.912-71.655-53.7-113.439-71.654-11.911-113.438-53.7-11.912-71.653-53.7-113.438-71.655-11.911-113.438-53.7-11.913-71.654-53.7-113.438-71.654-11.913-113.438-53.7-11.913-71.654-53.7-113.439-71.654-11.912-113.437-53.7-11.913-71.655-53.7-113.44-71.655-11.911-113.438-53.694-11.914-71.657-53.7-113.443-71.657-11.914-113.442-53.7" transform="translate(1745.788 -2026.283)" fill="none" stroke="#dd0069" stroke-miterlimit="10" stroke-width="1"/>
        <path id="Path_24730" data-name="Path 24730" d="M938.612,4535.555c-41.784-41.784-71.654-11.914-113.438-53.7s-11.912-71.655-53.7-113.438-71.654-11.912-113.437-53.694-11.913-71.656-53.7-113.439-71.655-11.913-113.439-53.7-11.913-71.656-53.7-113.438-71.653-11.912-113.436-53.695-11.912-71.653-53.7-113.436-71.655-11.914-113.438-53.7-11.913-71.654-53.7-113.437-71.654-11.913-113.438-53.7-11.912-71.654-53.7-113.438-71.655-11.913-113.439-53.7-11.913-71.654-53.7-113.438-71.655-11.912-113.439-53.7-11.913-71.654-53.7-113.439-71.654-11.912-113.437-53.695-11.913-71.655-53.7-113.439-71.654-11.914-113.438-53.7-11.914-71.656-53.7-113.441-71.656-11.915-113.441-53.7" transform="translate(1608.326 -2090.623)" fill="none" stroke="#dd0069" stroke-miterlimit="10" stroke-width="1"/>
        <path id="Path_24731" data-name="Path 24731" d="M1039.781,4635.889c-41.783-41.785-71.654-11.913-113.437-53.7s-11.913-71.653-53.7-113.437-71.654-11.913-113.437-53.7-11.913-71.655-53.7-113.437-71.654-11.914-113.438-53.7-11.913-71.653-53.7-113.437-71.653-11.912-113.436-53.695-11.912-71.653-53.695-113.437-71.654-11.912-113.438-53.7-11.912-71.654-53.7-113.438-71.654-11.911-113.438-53.694-11.913-71.655-53.7-113.439-71.654-11.913-113.438-53.7-11.913-71.653-53.7-113.438-71.654-11.912-113.439-53.7-11.913-71.655-53.7-113.44-71.654-11.911-113.437-53.694-11.913-71.656-53.7-113.438-71.654-11.912-113.438-53.695-11.914-71.656-53.7-113.442-71.656-11.915-113.441-53.7" transform="translate(1470.864 -2154.963)" fill="none" stroke="#dd0069" stroke-miterlimit="10" stroke-width="1"/>
        <path id="Path_24732" data-name="Path 24732" d="M1140.949,4736.225c-41.784-41.782-71.655-11.911-113.438-53.693s-11.913-71.657-53.7-113.44-71.655-11.911-113.438-53.7-11.913-71.652-53.7-113.438-71.654-11.911-113.438-53.694-11.912-71.654-53.7-113.438-71.654-11.911-113.436-53.694-11.912-71.652-53.695-113.438S400.762,4055.781,358.979,4014s-11.913-71.654-53.7-113.439-71.654-11.911-113.438-53.695-11.913-71.654-53.7-113.439S66.494,3721.513,24.71,3679.73s-11.913-71.655-53.7-113.439-71.655-11.912-113.439-53.7-11.913-71.655-53.7-113.438-71.654-11.914-113.437-53.7-11.913-71.654-53.7-113.438-71.654-11.914-113.438-53.7-11.914-71.658-53.7-113.441-71.656-11.916-113.442-53.7" transform="translate(1333.404 -2219.307)" fill="none" stroke="#dd0069" stroke-miterlimit="10" stroke-width="1"/>
        <path id="Path_24733" data-name="Path 24733" d="M1242.118,4836.562c-41.784-41.783-71.654-11.914-113.438-53.7s-11.912-71.653-53.7-113.437-71.654-11.913-113.438-53.7-11.913-71.656-53.7-113.439-71.655-11.913-113.438-53.7-11.913-71.653-53.7-113.437-71.654-11.911-113.437-53.692-11.912-71.656-53.695-113.438-71.654-11.913-113.438-53.7-11.913-71.653-53.7-113.437-71.654-11.914-113.438-53.7-11.913-71.654-53.7-113.437-71.655-11.914-113.438-53.7-11.913-71.656-53.7-113.438-71.655-11.913-113.438-53.7-11.913-71.656-53.7-113.44-71.654-11.912-113.437-53.694-11.913-71.655-53.7-113.439-71.654-11.914-113.438-53.7-11.914-71.656-53.7-113.442-71.656-11.914-113.441-53.7" transform="translate(1195.941 -2283.648)" fill="none" stroke="#dd0069" stroke-miterlimit="10" stroke-width="1"/>
        <path id="Path_24734" data-name="Path 24734" d="M1343.287,4936.9c-41.784-41.786-71.654-11.915-113.438-53.7s-11.912-71.654-53.7-113.439-71.654-11.911-113.437-53.695-11.912-71.654-53.7-113.438-71.655-11.912-113.438-53.695-11.913-71.655-53.7-113.441-71.654-11.911-113.436-53.693-11.912-71.653-53.695-113.436-71.655-11.913-113.438-53.7-11.912-71.656-53.7-113.438-71.654-11.913-113.438-53.7-11.913-71.653-53.7-113.438-71.655-11.911-113.438-53.695-11.913-71.655-53.7-113.439-71.655-11.913-113.439-53.7S48,3641.61,6.217,3599.827s-71.654-11.911-113.437-53.695-11.913-71.655-53.7-113.44-71.654-11.912-113.437-53.7-11.915-71.657-53.7-113.44-71.656-11.915-113.442-53.7" transform="translate(1058.479 -2347.99)" fill="none" stroke="#dd0069" stroke-miterlimit="10" stroke-width="1"/>
        <path id="Path_24735" data-name="Path 24735" d="M1444.457,5037.235c-41.784-41.784-71.655-11.913-113.438-53.7s-11.912-71.654-53.7-113.439-71.654-11.91-113.437-53.7-11.913-71.654-53.7-113.438-71.654-11.912-113.438-53.694-11.913-71.656-53.7-113.438-71.654-11.912-113.436-53.694-11.912-71.654-53.695-113.437-71.655-11.913-113.438-53.7-11.913-71.653-53.7-113.438-71.654-11.913-113.437-53.7-11.913-71.654-53.7-113.437-71.655-11.913-113.438-53.7-11.913-71.655-53.7-113.438-71.655-11.915-113.439-53.7-11.913-71.655-53.7-113.438-71.654-11.913-113.437-53.7-11.913-71.654-53.7-113.438-71.654-11.912-113.438-53.7-11.915-71.656-53.7-113.441-71.656-11.915-113.442-53.7" transform="translate(921.016 -2412.332)" fill="none" stroke="#dd0069" stroke-miterlimit="10" stroke-width="1"/>
        <path id="Path_24736" data-name="Path 24736" d="M1545.625,5137.568c-41.783-41.782-71.654-11.911-113.438-53.692s-11.912-71.657-53.7-113.439-71.654-11.912-113.437-53.694-11.913-71.655-53.7-113.441-71.655-11.911-113.438-53.692-11.912-71.656-53.7-113.441-71.654-11.909-113.436-53.692-11.912-71.654-53.695-113.437-71.655-11.913-113.438-53.7-11.913-71.655-53.7-113.438-71.654-11.913-113.438-53.7-11.913-71.655-53.7-113.438-71.655-11.913-113.438-53.7-11.913-71.653-53.7-113.439-71.655-11.912-113.439-53.7-11.913-71.654-53.7-113.438-71.654-11.911-113.437-53.7S83.2,3675.15,41.42,3633.365s-71.654-11.914-113.438-53.7-11.914-71.658-53.7-113.443-71.656-11.913-113.442-53.7" transform="translate(783.555 -2476.674)" fill="none" stroke="#dd0069" stroke-miterlimit="10" stroke-width="1"/>
        <path id="Path_24737" data-name="Path 24737" d="M1646.794,5237.906c-41.783-41.783-71.654-11.912-113.438-53.7s-11.912-71.654-53.7-113.437-71.654-11.912-113.437-53.7-11.913-71.657-53.7-113.439-71.655-11.911-113.438-53.694-11.913-71.657-53.7-113.439-71.654-11.912-113.436-53.694-11.912-71.653-53.695-113.437-71.654-11.912-113.438-53.7-11.913-71.654-53.7-113.437-71.654-11.912-113.438-53.694-11.913-71.654-53.7-113.439-71.654-11.912-113.438-53.7-11.913-71.656-53.7-113.44-71.654-11.912-113.439-53.7-11.913-71.653-53.7-113.437-71.654-11.914-113.437-53.7-11.913-71.654-53.7-113.437-71.654-11.912-113.438-53.7-11.914-71.656-53.7-113.442-71.656-11.916-113.442-53.7" transform="translate(646.093 -2541.016)" fill="none" stroke="#dd0069" stroke-miterlimit="10" stroke-width="1"/>
        <path id="Path_24738" data-name="Path 24738" d="M1747.962,5338.243c-41.784-41.784-71.655-11.912-113.438-53.695s-11.913-71.653-53.7-113.439-71.654-11.913-113.437-53.7-11.913-71.653-53.7-113.438-71.654-11.912-113.438-53.7-11.913-71.653-53.7-113.437-71.653-11.911-113.436-53.692-11.912-71.653-53.695-113.439-71.654-11.912-113.438-53.7-11.913-71.654-53.7-113.435-71.654-11.916-113.437-53.7-11.913-71.653-53.7-113.437-71.655-11.914-113.438-53.7-11.913-71.657-53.7-113.439-71.655-11.914-113.439-53.7-11.913-71.656-53.7-113.44-71.654-11.911-113.437-53.7-11.913-71.654-53.7-113.438-71.654-11.914-113.438-53.7-11.914-71.656-53.7-113.442-71.656-11.913-113.442-53.7" transform="translate(508.632 -2605.356)" fill="none" stroke="#dd0069" stroke-miterlimit="10" stroke-width="1"/>
        <path id="Path_24739" data-name="Path 24739" d="M1849.131,5438.578c-41.784-41.784-71.654-11.914-113.438-53.7s-11.912-71.652-53.7-113.435-71.654-11.914-113.438-53.7-11.912-71.653-53.7-113.437-71.654-11.914-113.438-53.7-11.913-71.654-53.7-113.44-71.654-11.909-113.437-53.692-11.912-71.655-53.695-113.437-71.654-11.912-113.438-53.7-11.913-71.656-53.7-113.439-71.654-11.912-113.438-53.7-11.913-71.654-53.7-113.44-71.655-11.91-113.438-53.693-11.913-71.654-53.7-113.44-71.654-11.912-113.438-53.7-11.913-71.654-53.7-113.439-71.654-11.913-113.437-53.7-11.913-71.654-53.7-113.437-71.654-11.913-113.438-53.7-11.914-71.659-53.7-113.443-71.656-11.913-113.442-53.7" transform="translate(371.17 -2669.7)" fill="none" stroke="#dd0069" stroke-miterlimit="10" stroke-width="1"/>
        <path id="Path_24740" data-name="Path 24740" d="M1950.3,5538.916c-41.784-41.786-71.654-11.911-113.438-53.7s-11.912-71.652-53.7-113.437-71.654-11.912-113.438-53.694-11.912-71.657-53.7-113.439-71.655-11.913-113.438-53.695-11.913-71.657-53.7-113.44-71.654-11.91-113.436-53.694-11.912-71.654-53.7-113.435-71.654-11.916-113.438-53.7-11.912-71.653-53.7-113.437-71.654-11.911-113.438-53.7-11.912-71.654-53.7-113.438-71.655-11.911-113.438-53.7-11.913-71.653-53.7-113.438-71.654-11.914-113.438-53.7-11.913-71.655-53.7-113.438-71.654-11.912-113.437-53.7-11.913-71.654-53.7-113.437-71.654-11.914-113.438-53.7-11.914-71.656-53.7-113.442-71.656-11.914-113.442-53.7" transform="translate(233.707 -2734.041)" fill="none" stroke="#dd0069" stroke-miterlimit="10" stroke-width="1"/>
        <path id="Path_24741" data-name="Path 24741" d="M2051.469,5639.251c-41.784-41.782-71.654-11.914-113.438-53.7s-11.912-71.658-53.7-113.44-71.654-11.913-113.437-53.7-11.912-71.653-53.7-113.434-71.655-11.915-113.438-53.7-11.912-71.654-53.7-113.438-71.653-11.914-113.436-53.695-11.912-71.655-53.695-113.437-71.655-11.913-113.438-53.7-11.913-71.656-53.7-113.437-71.654-11.914-113.438-53.7-11.913-71.655-53.7-113.438-71.655-11.914-113.438-53.7-11.913-71.653-53.7-113.437-71.655-11.915-113.439-53.7-11.913-71.656-53.7-113.44-71.654-11.909-113.438-53.7-11.913-71.654-53.7-113.435-71.654-11.915-113.437-53.7-11.915-71.656-53.7-113.44-71.656-11.916-113.441-53.7" transform="translate(96.245 -2798.383)" fill="none" stroke="#dd0069" stroke-miterlimit="10" stroke-width="1"/>
        <path id="Path_24742" data-name="Path 24742" d="M2152.638,5739.588c-41.783-41.781-71.655-11.91-113.438-53.695s-11.912-71.654-53.7-113.438-71.654-11.912-113.438-53.694-11.913-71.657-53.7-113.442-71.655-11.91-113.438-53.694-11.913-71.656-53.7-113.437-71.654-11.913-113.436-53.695-11.912-71.653-53.7-113.44-71.655-11.912-113.438-53.695-11.913-71.653-53.7-113.437-71.654-11.914-113.437-53.7-11.913-71.653-53.7-113.437-71.655-11.912-113.438-53.7-11.913-71.656-53.7-113.438-71.655-11.913-113.439-53.7-11.914-71.651-53.7-113.438-71.654-11.913-113.437-53.7-11.913-71.655-53.7-113.437-71.655-11.914-113.438-53.7-11.914-71.655-53.7-113.441-71.656-11.914-113.442-53.7" transform="translate(-41.217 -2862.723)" fill="none" stroke="#dd0069" stroke-miterlimit="10" stroke-width="1"/>
        <path id="Path_24743" data-name="Path 24743" d="M2253.807,5839.926c-41.783-41.785-71.654-11.914-113.437-53.7s-11.913-71.653-53.7-113.433-71.654-11.913-113.437-53.7-11.913-71.653-53.7-113.437-71.655-11.913-113.439-53.695-11.912-71.657-53.7-113.439-71.654-11.909-113.437-53.695-11.911-71.653-53.694-113.435-71.655-11.914-113.438-53.7-11.912-71.655-53.7-113.441-71.654-11.91-113.437-53.695-11.913-71.656-53.7-113.438-71.655-11.911-113.438-53.7-11.913-71.653-53.7-113.437-71.655-11.911-113.439-53.7-11.913-71.653-53.7-113.436-71.655-11.914-113.437-53.7-11.913-71.657-53.7-113.44-71.654-11.912-113.438-53.695-11.915-71.655-53.7-113.443-71.657-11.912-113.442-53.7" transform="translate(-178.679 -2927.066)" fill="none" stroke="#dd0069" stroke-miterlimit="10" stroke-width="1"/>
        <path id="Path_24744" data-name="Path 24744" d="M2354.975,5940.259c-41.783-41.784-71.654-11.913-113.438-53.7s-11.912-71.654-53.7-113.435-71.654-11.914-113.437-53.7-11.912-71.655-53.7-113.437-71.654-11.913-113.438-53.7-11.913-71.657-53.7-113.44-71.654-11.909-113.436-53.693-11.912-71.656-53.695-113.437-71.654-11.914-113.438-53.7-11.913-71.655-53.7-113.438-71.655-11.914-113.438-53.7-11.912-71.654-53.7-113.438-71.654-11.912-113.438-53.694-11.913-71.657-53.7-113.44-71.655-11.912-113.439-53.7-11.913-71.654-53.7-113.438-71.653-11.913-113.437-53.7-11.912-71.653-53.7-113.438-71.655-11.911-113.438-53.7-11.914-71.654-53.7-113.442-71.655-11.914-113.441-53.7" transform="translate(-316.141 -2991.409)" fill="none" stroke="#dd0069" stroke-miterlimit="10" stroke-width="1"/>
        <path id="Path_24745" data-name="Path 24745" d="M2456.144,6040.594c-41.784-41.784-71.655-11.91-113.438-53.7s-11.912-71.653-53.7-113.439-71.654-11.91-113.437-53.694-11.912-71.652-53.7-113.438-71.654-11.913-113.438-53.7-11.913-71.656-53.7-113.437-71.653-11.913-113.436-53.694-11.912-71.654-53.695-113.44-71.654-11.91-113.438-53.692-11.912-71.656-53.7-113.438-71.654-11.915-113.438-53.7-11.912-71.655-53.7-113.437-71.655-11.914-113.439-53.7-11.913-71.653-53.7-113.438-71.655-11.916-113.438-53.7-11.913-71.656-53.7-113.44-71.654-11.91-113.438-53.7-11.913-71.654-53.7-113.436-71.655-11.916-113.438-53.7-11.915-71.659-53.7-113.442-71.656-11.915-113.441-53.7" transform="translate(-453.602 -3055.749)" fill="none" stroke="#dd0069" stroke-miterlimit="10" stroke-width="1"/>
        <path id="Path_24746" data-name="Path 24746" d="M2557.313,6140.929c-41.783-41.784-71.654-11.912-113.437-53.7s-11.913-71.654-53.7-113.437-71.655-11.913-113.438-53.695-11.912-71.657-53.7-113.439-71.654-11.911-113.437-53.7-11.913-71.653-53.7-113.435-71.654-11.914-113.436-53.694-11.912-71.654-53.695-113.438-71.655-11.914-113.438-53.7-11.913-71.656-53.7-113.439-71.655-11.912-113.438-53.695-11.913-71.656-53.7-113.439-71.654-11.913-113.438-53.695-11.912-71.657-53.7-113.438-71.655-11.916-113.439-53.7-11.914-71.653-53.7-113.439-71.654-11.912-113.438-53.694-11.913-71.655-53.7-113.44-71.655-11.91-113.437-53.694-11.916-71.659-53.7-113.442-71.656-11.916-113.441-53.7" transform="translate(-591.064 -3120.092)" fill="none" stroke="#dd0069" stroke-miterlimit="10" stroke-width="1"/>
        <path id="Path_24747" data-name="Path 24747" d="M2658.482,6241.27c-41.784-41.784-71.655-11.913-113.438-53.7s-11.912-71.655-53.7-113.437-71.654-11.914-113.437-53.7S2366,5948.785,2324.216,5907s-71.655-11.913-113.438-53.7-11.913-71.654-53.7-113.437-71.654-11.912-113.436-53.7-11.913-71.649-53.7-113.436-71.655-11.914-113.438-53.695-11.912-71.653-53.7-113.439-71.654-11.913-113.438-53.693-11.912-71.654-53.7-113.438-71.655-11.914-113.439-53.7-11.913-71.655-53.7-113.441-71.655-11.91-113.439-53.695-11.912-71.654-53.7-113.435-71.654-11.914-113.437-53.7-11.914-71.654-53.7-113.439-71.654-11.913-113.438-53.695-11.915-71.66-53.7-113.443-71.656-11.913-113.442-53.7" transform="translate(-728.527 -3184.433)" fill="none" stroke="#dd0069" stroke-miterlimit="10" stroke-width="1"/>
        <path id="Path_24748" data-name="Path 24748" d="M2759.65,6341.6c-41.783-41.782-71.654-11.913-113.438-53.7s-11.912-71.654-53.7-113.437-71.654-11.912-113.436-53.7-11.913-71.656-53.7-113.438-71.656-11.914-113.439-53.695-11.912-71.657-53.7-113.441-71.654-11.91-113.436-53.695-11.912-71.652-53.695-113.434-71.656-11.914-113.438-53.7-11.913-71.654-53.7-113.438-71.654-11.914-113.437-53.7-11.912-71.653-53.7-113.437-71.654-11.913-113.437-53.7-11.914-71.653-53.7-113.438-71.656-11.914-113.439-53.7-11.912-71.654-53.7-113.437-71.654-11.912-113.437-53.694-11.913-71.661-53.7-113.44-71.653-11.913-113.437-53.7-11.915-71.657-53.7-113.442-71.657-11.917-113.442-53.7" transform="translate(-865.989 -3248.774)" fill="none" stroke="#dd0069" stroke-miterlimit="10" stroke-width="1"/>
        <path id="Path_24749" data-name="Path 24749" d="M2860.82,6441.939c-41.783-41.782-71.654-11.914-113.438-53.7s-11.912-71.656-53.7-113.438-71.654-11.912-113.437-53.7-11.912-71.654-53.7-113.438-71.655-11.91-113.437-53.7-11.914-71.654-53.7-113.438-71.653-11.911-113.436-53.692-11.912-71.653-53.694-113.437-71.655-11.911-113.439-53.7-11.913-71.652-53.7-113.434-71.655-11.914-113.438-53.7-11.912-71.653-53.7-113.435-71.654-11.914-113.439-53.7-11.913-71.652-53.7-113.437-71.654-11.914-113.438-53.7-11.913-71.654-53.7-113.439-71.654-11.909-113.437-53.695-11.912-71.654-53.7-113.437-71.655-11.914-113.438-53.7-11.914-71.657-53.7-113.438-71.657-11.918-113.442-53.7" transform="translate(-1003.451 -3313.117)" fill="none" stroke="#dd0069" stroke-miterlimit="10" stroke-width="1"/>
        <path id="Path_24750" data-name="Path 24750" d="M2961.989,6542.276c-41.783-41.784-71.655-11.911-113.438-53.7s-11.912-71.654-53.7-113.439-71.654-11.913-113.437-53.693-11.913-71.654-53.7-113.44-71.655-11.91-113.438-53.7-11.913-71.654-53.7-113.436-71.654-11.912-113.437-53.694-11.912-71.654-53.694-113.438-71.655-11.911-113.438-53.7-11.914-71.651-53.7-113.437-71.655-11.913-113.438-53.693-11.913-71.656-53.7-113.439-71.655-11.913-113.438-53.7-11.913-71.651-53.7-113.437-71.654-11.914-113.438-53.7-11.913-71.657-53.7-113.44-71.654-11.914-113.437-53.7-11.912-71.654-53.7-113.44-71.654-11.91-113.437-53.693-11.915-71.657-53.7-113.441-71.656-11.915-113.441-53.7" transform="translate(-1140.913 -3377.456)" fill="none" stroke="#dd0069" stroke-miterlimit="10" stroke-width="1"/>
        <path id="Path_24751" data-name="Path 24751" d="M3063.156,6642.613c-41.784-41.783-71.655-11.913-113.438-53.7s-11.912-71.656-53.7-113.438-71.654-11.911-113.438-53.7-11.912-71.652-53.7-113.437-71.653-11.914-113.438-53.695-11.912-71.655-53.7-113.439-71.653-11.91-113.437-53.7-11.911-71.652-53.694-113.433-71.655-11.913-113.437-53.7-11.913-71.653-53.7-113.44-71.655-11.913-113.438-53.694-11.913-71.654-53.7-113.438-71.654-11.913-113.438-53.7-11.913-71.654-53.7-113.439-71.655-11.91-113.438-53.695-11.913-71.654-53.7-113.437-71.655-11.914-113.437-53.7-11.913-71.656-53.7-113.439-71.655-11.914-113.438-53.7-11.914-71.657-53.7-113.443-71.656-11.913-113.441-53.7" transform="translate(-1278.373 -3441.799)" fill="none" stroke="#dd0069" stroke-miterlimit="10" stroke-width="1"/>
      </g>
    </g>
  </g>
</svg>
