<svg width="175" height="13" viewBox="0 0 175 13" fill="none" xmlns="http://www.w3.org/2000/svg">
<path d="M149.948 0.324967C150.146 0.638964 150.324 0.963817 150.48 1.29776C150.559 1.57157 150.611 1.8515 150.635 2.13409L150.003 2.71745C142.705 2.415 135.34 2.39824 127.979 2.48842C120.618 2.57859 113.268 2.66558 105.916 3.11966C106.307 3.13641 106.698 3.15637 107.089 3.16834C113.372 3.35907 119.657 3.53463 125.939 3.74531C128.462 3.8299 130.979 3.99987 133.5 4.11798C139.24 4.38851 144.984 4.62393 150.722 4.92479C155.279 5.16419 159.831 5.46824 164.384 5.76431C167.114 5.94227 169.84 6.15534 172.567 6.36283C173.154 6.40752 173.734 6.49291 174.368 6.56553C174.461 6.83425 174.603 7.08611 174.787 7.31009C175.137 7.62132 174.969 7.92218 174.887 8.22623C174.795 8.49223 174.683 8.75195 174.552 9.00351C174.067 8.98435 173.642 8.97876 173.221 8.94923C170.387 8.74494 167.552 8.53879 164.719 8.33077C164.347 8.27409 163.97 8.26443 163.596 8.30204C162.32 8.46678 161.027 8.47858 159.748 8.33715C153.519 8.07619 147.281 7.99958 141.043 7.95489C134.968 7.9126 128.893 7.81205 122.817 7.81923C115.668 7.82801 108.52 7.91579 101.371 7.98761C97.0709 8.0307 92.7699 8.08498 88.4705 8.17835C85.033 8.25257 81.5971 8.37626 78.1621 8.50793C72.4714 8.72553 66.7816 8.95695 61.0926 9.20221C57.1748 9.3698 53.2562 9.54298 49.3453 9.75206C46.129 9.92363 42.9144 10.1511 39.704 10.3514C37.7216 10.4743 35.7374 10.5732 33.7575 10.7137C30.011 10.9797 26.2667 11.2571 22.5247 11.546C20.1238 11.7312 17.7144 11.9227 15.322 12.1573C13.565 12.2734 11.8217 12.5286 10.1112 12.9202C9.23662 13.1484 8.77014 12.8811 8.75899 12.194C8.75899 11.9921 8.7976 11.7902 8.80274 11.5883C8.80274 11.4287 8.78645 11.2691 8.77273 11.0385C8.3157 11.0704 7.90753 11.1031 7.49938 11.1279C7.17849 11.1565 6.85623 11.1698 6.53387 11.1677C5.5375 11.1334 5.28114 10.9451 5.08821 10.1543C5.05219 10.005 5.01273 9.855 4.96729 9.67544C4.20116 9.65171 3.43462 9.70847 2.68216 9.84463C2.26115 9.90927 1.84612 10.0042 1.42253 10.0529C0.709977 10.1383 0.25811 9.91485 0.131205 9.40172C0.0680741 9.07327 0.0242651 8.74186 0 8.40897C0.634137 8.07674 1.33436 7.86821 2.05793 7.79609C4.77898 7.26685 7.53142 6.88871 10.3007 6.66369C14.7898 6.30404 19.2809 5.96063 23.7741 5.63343C27.0364 5.39137 30.3005 5.161 33.5663 4.94235C36.5099 4.74364 39.4562 4.57127 42.3982 4.37016C46.466 4.09245 50.5312 3.79798 54.5973 3.51148C57.3806 3.31464 60.164 3.11753 62.9473 2.92015C68.1384 2.54986 73.3277 2.16761 78.5205 1.81089C80.6067 1.66725 82.7007 1.57946 84.7903 1.45976C87.3627 1.31292 89.9351 1.13337 92.5075 1.01446C96.8 0.815753 101.095 0.656944 105.389 0.474196C114.519 0.0887487 123.653 -0.00461569 132.799 0.000172468C136.347 0.000172468 139.895 0.0286311 143.442 0.085557C145.572 0.119074 147.716 0.239579 149.948 0.324967ZM40.5503 6.9039C42.074 7.04116 57.4184 6.49611 59.3914 6.2966C59.4685 6.28862 59.5329 6.20881 59.6032 6.16173C59.586 5.82736 59.3528 5.62306 58.9121 5.62785C58.1609 5.63583 57.4081 5.66057 56.6604 5.71403C53.9868 5.90476 51.3158 6.11305 48.6431 6.31096C45.9455 6.51046 43.2479 6.70812 40.5503 6.9039Z" fill="#E5006F"/>
</svg>
