<svg width="51" height="32" viewBox="0 0 51 32" fill="none" xmlns="http://www.w3.org/2000/svg">
<path d="M50.4792 27.589L50.3602 23.8541C50.3512 23.5425 50.281 23.2357 50.1533 22.9513C50.0256 22.667 49.843 22.4106 49.616 22.1969C49.3891 21.9833 49.1222 21.8166 48.8306 21.7062C48.5391 21.5959 48.2287 21.5441 47.9172 21.554L47.4102 21.569C46.4556 17.4766 44.3108 13.7584 41.2462 10.8831L41.2142 10.8531C39.325 9.06803 37.126 7.64263 34.7252 6.64702L41.2742 6.44707C41.6498 7.41544 42.3558 8.21971 43.2674 8.71758C44.179 9.21544 45.2372 9.37479 46.2549 9.16741C47.2727 8.96003 48.1842 8.39924 48.8283 7.5844C49.4724 6.76955 49.8075 5.75313 49.7742 4.71501C49.7382 3.54741 49.2408 2.44174 48.3912 1.64006C47.971 1.24188 47.4757 0.931557 46.9341 0.727221C46.3926 0.522884 45.8157 0.428581 45.2372 0.449999C44.0712 0.483625 42.9662 0.978996 42.1652 1.82707C41.718 2.30388 41.3813 2.87336 41.1791 3.49504L29.3881 3.84807L29.3752 3.44805C29.3664 3.13643 29.2962 2.82962 29.1685 2.54521C29.0409 2.2608 28.8583 2.00439 28.6313 1.7907C28.4043 1.57701 28.1375 1.41026 27.8459 1.29997C27.5543 1.18969 27.2438 1.138 26.9322 1.148L23.1581 1.2531C22.8472 1.26149 22.541 1.33125 22.2571 1.45854C21.9733 1.58584 21.7175 1.76816 21.5045 1.9948C21.2914 2.22144 21.1254 2.48797 21.0158 2.7791C20.9063 3.07024 20.8553 3.38021 20.8662 3.69109L20.8792 4.09099L9.0882 4.44499C8.71261 3.47662 8.00659 2.67235 7.09503 2.17449C6.18348 1.67662 5.1251 1.51728 4.10736 1.72466C3.08962 1.93204 2.17807 2.49282 1.534 3.30767C0.889926 4.12251 0.554928 5.13893 0.588197 6.17705C0.62046 7.2134 1.01768 8.20504 1.70978 8.9771C2.40188 9.74915 3.34436 10.252 4.37103 10.3969C5.39771 10.5418 6.44259 10.3195 7.32135 9.76921C8.20011 9.2189 8.85626 8.37601 9.17413 7.38909L15.7232 7.18901C12.6705 8.68362 10.0167 10.8823 7.98041 13.6038C5.94413 16.3253 4.58363 19.4917 4.01117 22.8421L3.38117 22.861C2.75206 22.8811 2.1567 23.15 1.72553 23.6086C1.29435 24.0671 1.06265 24.6779 1.08124 25.3071L1.20014 29.0571C1.20893 29.3687 1.27915 29.6755 1.4068 29.9599C1.53445 30.2443 1.71705 30.5007 1.94403 30.7144C2.17101 30.9281 2.43797 31.0948 2.72955 31.2051C3.02114 31.3154 3.33155 31.3671 3.64313 31.3571L7.39423 31.245C8.02324 31.2247 8.6185 30.9557 9.04962 30.4972C9.48074 30.0388 9.71248 29.4281 9.69415 28.799L9.57514 25.048C9.56647 24.7364 9.49632 24.4295 9.36871 24.1451C9.24111 23.8606 9.05861 23.6041 8.8316 23.3904C8.6046 23.1767 8.3376 23.0099 8.04596 22.8997C7.75432 22.7895 7.44376 22.738 7.13214 22.7481H7.02423C7.74772 19.2354 9.47514 16.008 11.997 13.4579C14.5189 10.9078 17.7267 9.14454 21.2311 8.38201C21.3553 8.64917 21.5302 8.88965 21.7462 9.09001C21.9732 9.30378 22.2403 9.47056 22.532 9.58074C22.8238 9.69091 23.1345 9.74241 23.4462 9.7321L27.1972 9.62004C27.6563 9.6055 28.1012 9.45787 28.478 9.19512C28.8547 8.93237 29.1469 8.56584 29.3192 8.14006C32.8687 8.69086 36.1828 10.2577 38.8611 12.6512C41.5395 15.0447 43.4674 18.1626 44.4122 21.6281L44.1812 21.6351C43.5522 21.6554 42.9569 21.9244 42.5258 22.3829C42.0947 22.8413 41.8628 23.452 41.8812 24.0811L42.0002 27.8311C42.009 28.1427 42.0792 28.4495 42.2068 28.7339C42.3345 29.0183 42.5171 29.2748 42.7441 29.4885C42.9711 29.7021 43.2379 29.8689 43.5295 29.9792C43.8211 30.0895 44.1316 30.141 44.4432 30.131L48.1942 30.0191C48.5039 30.0102 48.809 29.9401 49.0916 29.813C49.3743 29.686 49.6291 29.5044 49.8414 29.2786C50.0537 29.0528 50.2192 28.7874 50.3287 28.4975C50.4381 28.2075 50.4893 27.8988 50.4792 27.589ZM6.72614 28.3471L4.09723 28.4261L4.01312 25.797L6.64215 25.7181L6.72614 28.3471ZM45.3091 3.38701C45.5969 3.37884 45.8805 3.45619 46.1243 3.60918C46.3681 3.76216 46.5612 3.98401 46.679 4.24663C46.7968 4.50925 46.8341 4.80082 46.7862 5.08464C46.7383 5.36846 46.6074 5.63179 46.41 5.84123C46.2125 6.05068 45.9574 6.19687 45.6769 6.2614C45.3964 6.32594 45.1032 6.30589 44.834 6.20378C44.5649 6.10168 44.3321 5.92215 44.165 5.68779C43.9979 5.45343 43.904 5.17471 43.8952 4.88701C43.8898 4.69553 43.9224 4.50493 43.991 4.3261C44.0597 4.14726 44.1631 3.98373 44.2952 3.84502C44.5603 3.56557 44.9242 3.40114 45.3091 3.38701ZM5.02619 7.52507C4.73847 7.53324 4.45481 7.45589 4.211 7.3029C3.96719 7.14992 3.77423 6.9282 3.65643 6.66558C3.53864 6.40295 3.50125 6.11126 3.54913 5.82744C3.59702 5.54362 3.72792 5.28029 3.92536 5.07085C4.12279 4.86141 4.37789 4.71522 4.65839 4.65068C4.93889 4.58615 5.23229 4.6062 5.50141 4.7083C5.77052 4.8104 6.00325 4.99005 6.17035 5.22441C6.33745 5.45877 6.43131 5.73738 6.44013 6.02507C6.44599 6.21659 6.41411 6.40733 6.34613 6.58647C6.27816 6.76562 6.17544 6.92959 6.04401 7.06902C5.91257 7.20844 5.75497 7.32068 5.58014 7.3991C5.40531 7.47751 5.21674 7.52061 5.02521 7.52605L5.02619 7.52507ZM23.8992 6.80608L23.8151 4.17705L26.4442 4.09807L26.4861 5.40508L26.5281 6.71208L23.8992 6.80608ZM44.9052 27.194L44.8212 24.565L47.4501 24.4871L47.5342 27.116L44.9052 27.194Z" fill="#40975F"/>
</svg>
