<svg width="55" height="58" viewBox="0 0 55 58" fill="none" xmlns="http://www.w3.org/2000/svg">
<path d="M28.2274 58.0001C28.1814 58.0001 28.1364 58.0001 28.0904 58.0001C26.1738 57.9988 24.2637 57.7781 22.3973 57.3422C22.153 57.2846 21.9414 57.1324 21.809 56.9191C21.6767 56.7057 21.6343 56.4486 21.6913 56.2041C21.7174 56.0828 21.7675 55.968 21.8384 55.8662C21.9094 55.7645 22 55.6778 22.1048 55.6115C22.2096 55.5451 22.3266 55.5003 22.449 55.4796C22.5713 55.459 22.6966 55.4628 22.8174 55.4911C24.291 55.8306 25.794 56.0269 27.3054 56.0771V54.2001C27.3012 54.0741 27.3225 53.9486 27.3679 53.8311C27.4132 53.7135 27.4818 53.6063 27.5695 53.5157C27.6571 53.4252 27.762 53.3531 27.8781 53.304C27.9941 53.2548 28.1189 53.2295 28.2449 53.2295C28.3709 53.2295 28.4956 53.2548 28.6116 53.304C28.7277 53.3531 28.8326 53.4252 28.9203 53.5157C29.0079 53.6063 29.0765 53.7135 29.1218 53.8311C29.1672 53.9486 29.1885 54.0741 29.1844 54.2001V56.0691C32.6195 55.9112 35.976 54.9888 39.0093 53.3691L38.0834 51.7482C37.9574 51.53 37.9229 51.2708 37.9874 51.0272C38.0518 50.7837 38.21 50.5755 38.4274 50.4481C38.5341 50.3856 38.6523 50.345 38.7749 50.3286C38.8975 50.3122 39.0222 50.3205 39.1416 50.3528C39.261 50.3851 39.3728 50.4408 39.4705 50.5167C39.5681 50.5927 39.6497 50.6874 39.7104 50.7952L40.6334 52.4131C43.5803 50.5188 46.0729 47.9976 47.9333 45.0292L46.3334 44.0951C46.1164 43.9674 45.9586 43.7593 45.8942 43.5159C45.8298 43.2725 45.864 43.0135 45.9894 42.7952C46.0502 42.6875 46.1318 42.5928 46.2294 42.517C46.3271 42.4411 46.4388 42.3854 46.5582 42.3531C46.6776 42.3209 46.8023 42.3127 46.9249 42.329C47.0475 42.3453 47.1655 42.3857 47.2723 42.4481L48.8724 43.3851C50.501 40.2619 51.4154 36.8159 51.5494 33.2961H49.7004C49.4484 33.2961 49.2068 33.196 49.0286 33.0178C48.8505 32.8397 48.7504 32.598 48.7504 32.3461C48.7504 32.0941 48.8505 31.8525 49.0286 31.6743C49.2068 31.4962 49.4484 31.3961 49.7004 31.3961H51.5564C51.4223 27.877 50.508 24.4316 48.8794 21.3091L47.2794 22.2451C47.1373 22.3289 46.9753 22.3731 46.8104 22.3732C46.6448 22.373 46.4823 22.3288 46.3393 22.2454C46.1963 22.1619 46.078 22.0421 45.9963 21.8981C45.8708 21.68 45.8363 21.4212 45.9003 21.1779C45.9644 20.9345 46.1217 20.7262 46.3384 20.5981L47.9384 19.6652C46.078 16.6964 43.5854 14.1747 40.6384 12.2802L39.7154 13.8981C39.6339 14.0425 39.5155 14.1626 39.3723 14.2461C39.229 14.3296 39.0662 14.3734 38.9004 14.3732C38.7355 14.3735 38.5736 14.3296 38.4314 14.2461C38.2143 14.1185 38.0562 13.9105 37.9916 13.6671C37.927 13.4237 37.961 13.1646 38.0864 12.9462L39.0134 11.3241C35.9801 9.70427 32.6235 8.7819 29.1884 8.62415V10.4951C29.1884 10.7444 29.0893 10.9835 28.913 11.1598C28.7367 11.3361 28.4977 11.4352 28.2484 11.4352C27.999 11.4352 27.76 11.3361 27.5837 11.1598C27.4074 10.9835 27.3083 10.7444 27.3083 10.4951V8.61816C27.0324 8.63116 26.7484 8.64912 26.4404 8.67212L25.4314 8.75012C24.553 8.85272 23.6809 9.00427 22.8193 9.2041C22.6985 9.23195 22.5733 9.2355 22.451 9.2146C22.3288 9.1937 22.2119 9.14881 22.1072 9.0824C22.0024 9.01598 21.9119 8.92942 21.8409 8.82776C21.7698 8.72609 21.7197 8.61131 21.6934 8.49011C21.6364 8.2456 21.6787 7.98849 21.811 7.77515C21.9434 7.5618 22.155 7.40971 22.3994 7.35217C23.3979 7.12169 24.4094 6.95168 25.4283 6.84314V5.74316H24.0193C23.398 5.73041 22.8065 5.47456 22.3716 5.03064C21.9367 4.58672 21.6931 3.9901 21.6931 3.36865C21.6931 2.7472 21.9367 2.15046 22.3716 1.70654C22.8065 1.26263 23.398 1.00689 24.0193 0.994141H32.4764C33.0977 1.00689 33.6892 1.26263 34.1241 1.70654C34.559 2.15046 34.8026 2.7472 34.8026 3.36865C34.8026 3.9901 34.559 4.58672 34.1241 5.03064C33.6892 5.47456 33.0977 5.73041 32.4764 5.74316H31.0674V6.87512C34.4728 7.27964 37.7585 8.38047 40.7203 10.1091C40.7403 10.1201 40.7614 10.1181 40.7804 10.1301C40.7994 10.1421 40.8094 10.1601 40.8274 10.1721C42.4547 11.1304 43.9703 12.2668 45.3464 13.5602L47.3654 11.5211L46.0364 10.1761L50.0234 6.14612L54.0093 10.1761L50.0234 14.2062L48.6943 12.8632L46.6764 14.9031C47.9574 16.2981 49.0808 17.83 50.0264 19.4711C50.0394 19.4881 50.0564 19.5001 50.0674 19.5181C50.0784 19.5361 50.0773 19.5591 50.0873 19.5791C52.3018 23.4688 53.4662 27.8677 53.4662 32.3436C53.4662 36.8195 52.3018 41.2184 50.0873 45.1082C50.0773 45.1282 50.0784 45.1491 50.0674 45.1681C50.0564 45.1871 50.0284 45.2172 50.0104 45.2432C47.798 49.0729 44.6346 52.2669 40.8264 54.5161C40.8084 54.5281 40.7984 54.5461 40.7794 54.5571C40.7508 54.5714 40.7214 54.5841 40.6913 54.5951C36.9181 56.7917 32.6353 57.9619 28.2693 57.9891C28.2613 57.9891 28.2553 57.9891 28.2463 57.9891C28.2373 57.9891 28.2334 58.0001 28.2274 58.0001ZM48.6884 10.1862L50.0184 11.5311L51.3464 10.1862L50.0184 8.84216L48.6884 10.1862ZM29.1884 6.7251V3.8551H32.4774C32.6033 3.8551 32.7242 3.80502 32.8132 3.71594C32.9023 3.62686 32.9524 3.5061 32.9524 3.38013C32.9524 3.25415 32.9023 3.13327 32.8132 3.04419C32.7242 2.95511 32.6033 2.90515 32.4774 2.90515H24.0204C23.8944 2.90515 23.7736 2.95511 23.6845 3.04419C23.5954 3.13327 23.5453 3.25415 23.5453 3.38013C23.5453 3.5061 23.5954 3.62686 23.6845 3.71594C23.7736 3.80502 23.8944 3.8551 24.0204 3.8551H27.3004V6.7251C27.4134 6.7201 27.5164 6.72514 27.6254 6.71814C27.7794 6.71814 27.9333 6.70508 28.0873 6.70508H28.1584H28.2404C28.5444 6.70008 28.8563 6.70609 29.1833 6.72009L29.1884 6.7251ZM13.2134 49.4541C12.9614 49.4541 12.7198 49.3541 12.5416 49.1759C12.3635 48.9977 12.2634 48.7561 12.2634 48.5042C12.2634 48.2522 12.3635 48.0106 12.5416 47.8324C12.7198 47.6542 12.9614 47.5541 13.2134 47.5541H19.7903C20.0423 47.5541 20.2839 47.6542 20.4621 47.8324C20.6403 48.0106 20.7404 48.2522 20.7404 48.5042C20.7404 48.7561 20.6403 48.9977 20.4621 49.1759C20.2839 49.3541 20.0423 49.4541 19.7903 49.4541H13.2134ZM7.57538 42.8041C7.32342 42.8041 7.08179 42.704 6.90363 42.5259C6.72547 42.3477 6.62537 42.1061 6.62537 41.8541C6.62537 41.6022 6.72547 41.3605 6.90363 41.1824C7.08179 41.0042 7.32342 40.9042 7.57538 40.9042H19.7914C20.0433 40.9042 20.285 41.0042 20.4631 41.1824C20.6413 41.3605 20.7414 41.6022 20.7414 41.8541C20.7414 42.1061 20.6413 42.3477 20.4631 42.5259C20.285 42.704 20.0433 42.8041 19.7914 42.8041H7.57538ZM26.4103 36.1122C26.068 35.7645 25.8044 35.3474 25.6371 34.889C25.4699 34.4307 25.4029 33.9419 25.4409 33.4554C25.4788 32.969 25.6207 32.4964 25.8569 32.0696C26.0932 31.6427 26.4183 31.2715 26.8104 30.9811L38.9753 22.0812C39.1563 21.9496 39.3785 21.8872 39.6014 21.9055C39.8244 21.9239 40.0334 22.0217 40.1904 22.1812C40.3488 22.3414 40.4456 22.5523 40.4639 22.7769C40.4822 23.0014 40.4208 23.2254 40.2903 23.4092L31.4904 35.7091C31.2079 36.1047 30.8423 36.4338 30.4193 36.6732C29.9962 36.9126 29.5259 37.0566 29.0414 37.0951C28.9524 37.1021 28.8653 37.1061 28.7773 37.1061C28.3354 37.1057 27.898 37.0171 27.4907 36.8456C27.0834 36.674 26.7145 36.4231 26.4054 36.1072L26.4103 36.1122ZM27.9103 32.5171C27.6496 32.7069 27.4577 32.9764 27.3636 33.2849C27.2696 33.5934 27.2786 33.9241 27.3892 34.2271C27.4997 34.53 27.706 34.7887 27.9766 34.9641C28.2473 35.1395 28.5676 35.222 28.8893 35.1991C29.102 35.1821 29.3083 35.1188 29.494 35.0138C29.6797 34.9088 29.8402 34.7645 29.9644 34.5911L35.3314 27.0911L27.9103 32.5171ZM1.93439 36.1531C1.68243 36.1531 1.44079 36.053 1.26263 35.8749C1.08447 35.6967 0.984375 35.4551 0.984375 35.2031C0.984375 34.9512 1.08447 34.7095 1.26263 34.5314C1.44079 34.3532 1.68243 34.2532 1.93439 34.2532H19.7884C20.0403 34.2532 20.282 34.3532 20.4601 34.5314C20.6383 34.7095 20.7383 34.9512 20.7383 35.2031C20.7383 35.4551 20.6383 35.6967 20.4601 35.8749C20.282 36.053 20.0403 36.1531 19.7884 36.1531H1.93439ZM5.69336 29.5042C5.4414 29.5042 5.19977 29.404 5.02161 29.2258C4.84345 29.0477 4.74335 28.806 4.74335 28.5541C4.74335 28.3021 4.84345 28.0605 5.02161 27.8823C5.19977 27.7042 5.4414 27.6041 5.69336 27.6041H19.7884C20.0403 27.6041 20.282 27.7042 20.4601 27.8823C20.6383 28.0605 20.7383 28.3021 20.7383 28.5541C20.7383 28.806 20.6383 29.0477 20.4601 29.2258C20.282 29.404 20.0403 29.5042 19.7884 29.5042H5.69336ZM10.3934 22.8531C10.1414 22.8531 9.89978 22.753 9.72162 22.5748C9.54346 22.3967 9.44336 22.155 9.44336 21.9031C9.44336 21.6511 9.54346 21.4095 9.72162 21.2313C9.89978 21.0532 10.1414 20.9531 10.3934 20.9531H19.7934C20.0454 20.9531 20.2869 21.0532 20.4651 21.2313C20.6432 21.4095 20.7433 21.6511 20.7433 21.9031C20.7433 22.155 20.6432 22.3967 20.4651 22.5748C20.2869 22.753 20.0454 22.8531 19.7934 22.8531H10.3934ZM15.0934 16.2031C14.8414 16.2031 14.5998 16.1031 14.4216 15.9249C14.2435 15.7468 14.1434 15.5051 14.1434 15.2532C14.1434 15.0012 14.2435 14.7596 14.4216 14.5814C14.5998 14.4033 14.8414 14.3031 15.0934 14.3031H19.7934C20.0454 14.3031 20.2869 14.4033 20.4651 14.5814C20.6432 14.7596 20.7433 15.0012 20.7433 15.2532C20.7433 15.5051 20.6432 15.7468 20.4651 15.9249C20.2869 16.1031 20.0454 16.2031 19.7934 16.2031H15.0934Z" fill="#FF4361"/>
</svg>
