<svg width="1839" height="1000" viewBox="0 0 1839 1000" fill="none" xmlns="http://www.w3.org/2000/svg">
<mask id="mask0_1_6" style="mask-type:alpha" maskUnits="userSpaceOnUse" x="0" y="0" width="1920" height="1000">
<path d="M0 0H1920V1000H0V0Z" fill="url(#paint0_linear_1_6)"/>
</mask>
<g mask="url(#mask0_1_6)">
<path d="M-87 737C-87 591.749 30.7491 474 176 474V474C321.251 474 439 591.749 439 737V737C439 882.251 321.251 1000 176 1000H-87V737Z" fill="#02073E" fill-opacity="0.06"/>
<path d="M2065 485C2065 630.251 1947.25 748 1802 748V748C1656.75 748 1539 630.251 1539 485V485C1539 339.749 1656.75 222 1802 222H2065V485Z" fill="#02073E" fill-opacity="0.05"/>
<path d="M-87 208C-87 62.7491 30.7491 -55 176 -55V-55C321.251 -55 439 62.7491 439 208V208C439 353.251 321.251 471 176 471H-87V208Z" fill="#02073E" fill-opacity="0.05"/>
<path d="M439 0H989V555C989 748.3 832.3 905 639 905H439V0Z" fill="#02073E" fill-opacity="0.05"/>
<path d="M1539 1000L989 1000L989 572C989 378.7 1145.7 222 1339 222H1539L1539 1000Z" fill="#02073E" fill-opacity="0.06"/>
<path d="M1539 -41C1539 -186.251 1656.75 -304 1802 -304V-304C1947.25 -304 2065 -186.251 2065 -41V-41C2065 104.251 1947.25 222 1802 222H1539V-41Z" fill="#02073E" fill-opacity="0.06"/>
</g>
<defs>
<linearGradient id="paint0_linear_1_6" x1="-32.5" y1="-32.9999" x2="2069" y2="1061.5" gradientUnits="userSpaceOnUse">
<stop stop-color="#1E3C72"/>
<stop offset="1" stop-color="#2A5298"/>
</linearGradient>
</defs>
</svg>
