<svg width="27" height="37" viewBox="0 0 27 37" fill="none" xmlns="http://www.w3.org/2000/svg">
<g clip-path="url(#clip0_1_1257)">
<path d="M20.2113 0.539326C16.7925 -0.368329 13.1666 -0.132153 9.89747 1.21112C6.62834 2.55438 3.89932 4.92944 2.1349 7.96684C0.370482 11.0042 -0.330415 14.5337 0.141236 18.0062C0.612886 21.4787 2.23064 24.6996 4.74286 27.1678L22.6292 9.4656C23.298 8.80314 23.7789 7.97812 24.0235 7.07343C24.2681 6.16874 24.2679 5.21625 24.0229 4.31167C23.7779 3.40708 23.2967 2.58226 22.6276 1.92009C21.9585 1.25791 21.1252 0.781711 20.2113 0.539326Z" fill="url(#paint0_linear_1_1257)"/>
<path d="M6.78997 36.4601C10.2108 37.3707 13.8398 37.1359 17.1119 35.7925C20.384 34.449 23.1154 32.0723 24.8809 29.0323C26.6463 25.9923 27.3467 22.4597 26.873 18.9847C26.3992 15.5097 24.7779 12.2873 22.2615 9.81934L4.37516 27.5338C3.70636 28.196 3.22538 29.0208 2.98055 29.9253C2.73572 30.8298 2.73565 31.7822 2.98035 32.6867C3.22505 33.5913 3.70591 34.4161 4.37462 35.0785C5.04333 35.7408 5.87634 36.2173 6.78997 36.4601Z" fill="url(#paint1_linear_1_1257)"/>
<path style="mix-blend-mode:multiply" d="M22.2615 9.81934L4.37516 27.5338C3.70636 28.196 3.22538 29.0208 2.98055 29.9253C2.73572 30.8298 2.73565 31.7822 2.98035 32.6867C3.22505 33.5913 3.70591 34.4161 4.37462 35.0785C5.04332 35.7408 5.87634 36.2173 6.78997 36.4601C8.70264 36.965 10.6929 37.1169 12.6612 36.9081C4.81845 29.4393 22.2615 9.81934 22.2615 9.81934Z" fill="url(#paint2_linear_1_1257)"/>
<g style="mix-blend-mode:multiply">
<path style="mix-blend-mode:multiply" d="M6.46163 36.3617C3.92283 28.58 19.1712 12.9092 21.8619 10.2273L4.37541 27.5336C3.7271 28.1755 3.2549 28.9705 3.00348 29.8433C2.75206 30.7162 2.72972 31.6381 2.93858 32.5219C3.14743 33.4057 3.58058 34.2222 4.19706 34.8941C4.81353 35.566 5.59296 36.0711 6.46163 36.3617Z" fill="url(#paint3_linear_1_1257)"/>
<path style="mix-blend-mode:multiply" d="M22.2031 9.88984C22.2217 9.86941 22.2414 9.84995 22.262 9.83154L22.2031 9.88984Z" fill="url(#paint4_linear_1_1257)"/>
</g>
<path style="mix-blend-mode:screen" d="M23.9419 7.3645L4.72266 27.1563L22.6307 9.46643C23.2289 8.87775 23.6781 8.15757 23.9419 7.3645Z" fill="url(#paint5_radial_1_1257)"/>
</g>
<defs>
<linearGradient id="paint0_linear_1_1257" x1="16.4108" y1="-16.6934" x2="10.5883" y2="20.6654" gradientUnits="userSpaceOnUse">
<stop stop-color="#4A192D"/>
<stop offset="1" stop-color="#E60070"/>
</linearGradient>
<linearGradient id="paint1_linear_1_1257" x1="9.13659" y1="13.6181" x2="18.5057" y2="32.4248" gradientUnits="userSpaceOnUse">
<stop stop-color="#521831"/>
<stop offset="1" stop-color="#F60081"/>
</linearGradient>
<linearGradient id="paint2_linear_1_1257" x1="23.8083" y1="-3.42432" x2="6.08374" y2="38.1714" gradientUnits="userSpaceOnUse">
<stop stop-color="#3482C0"/>
<stop offset="0.45" stop-color="#96BEDE"/>
<stop offset="0.83" stop-color="#E1EDF6"/>
<stop offset="1" stop-color="white"/>
</linearGradient>
<linearGradient id="paint3_linear_1_1257" x1="1361.37" y1="132.275" x2="-132.26" y2="2238.51" gradientUnits="userSpaceOnUse">
<stop stop-color="#3482C0"/>
<stop offset="0.45" stop-color="#96BEDE"/>
<stop offset="0.83" stop-color="#E1EDF6"/>
<stop offset="1" stop-color="white"/>
</linearGradient>
<linearGradient id="paint4_linear_1_1257" x1="25.6749" y1="3.26808" x2="10.5969" y2="32.7125" gradientUnits="userSpaceOnUse">
<stop stop-color="#569FA1"/>
<stop offset="0.36" stop-color="#97C4C5"/>
<stop offset="0.8" stop-color="#E2EEEF"/>
<stop offset="1" stop-color="white"/>
</linearGradient>
<radialGradient id="paint5_radial_1_1257" cx="0" cy="0" r="1" gradientUnits="userSpaceOnUse" gradientTransform="translate(21.5953 32.382) scale(27.8184 27.5367)">
<stop stop-color="#FFFF00"/>
<stop offset="1"/>
</radialGradient>
<clipPath id="clip0_1_1257">
<rect width="27" height="37" fill="white"/>
</clipPath>
</defs>
</svg>
